<svg width="49" height="49" viewBox="0 0 49 49" fill="none" xmlns="http://www.w3.org/2000/svg">
<path d="M24.4999 28.8641C26.9101 28.8641 28.864 26.9103 28.864 24.5C28.864 22.0898 26.9101 20.136 24.4999 20.136C22.0897 20.136 20.1359 22.0898 20.1359 24.5C20.1359 26.9103 22.0897 28.8641 24.4999 28.8641Z" fill="#61DAFB"/>
<path d="M41.0757 17.3032C40.2335 16.9969 39.3531 16.6907 38.4343 16.4227C38.664 15.504 38.8554 14.5852 39.0085 13.7047C39.8125 8.65161 38.932 5.09145 36.482 3.71333C35.7546 3.29224 34.9507 3.10083 34.032 3.10083C31.3523 3.10083 27.9453 5.09145 24.5 8.42192C21.0546 5.09145 17.6476 3.10083 14.9679 3.10083C14.0492 3.10083 13.2453 3.29224 12.5179 3.71333C10.0679 5.12974 9.18745 8.68989 9.99136 13.7047C10.1445 14.5852 10.3359 15.504 10.5656 16.4227C9.64683 16.6907 8.76636 16.9586 7.92417 17.3032C3.13901 19.1407 0.535889 21.6672 0.535889 24.5C0.535889 27.3329 3.1773 29.8594 7.92417 31.6969C8.76636 32.0032 9.64683 32.3094 10.5656 32.5774C10.3359 33.4961 10.1445 34.4149 9.99136 35.2954C9.18745 40.3485 10.0679 43.9086 12.5179 45.2868C13.2453 45.7079 14.0492 45.8993 14.9679 45.8993C17.6859 45.8993 21.0929 43.9086 24.5 40.5782C27.9453 43.9086 31.3523 45.8993 34.032 45.8993C34.9507 45.8993 35.7546 45.7079 36.482 45.2868C38.932 43.8704 39.8125 40.3102 39.0085 35.2954C38.8554 34.4149 38.664 33.4961 38.4343 32.5774C39.3531 32.3094 40.2335 32.0415 41.0757 31.6969C45.8609 29.8594 48.464 27.3329 48.464 24.5C48.464 21.6672 45.8609 19.1407 41.0757 17.3032ZM35.4101 5.62739C36.9796 6.54614 37.5156 9.37895 36.8648 13.3985C36.75 14.2024 36.5585 15.0446 36.3289 15.925C34.3382 15.4657 32.2328 15.1594 30.0125 14.968C28.7109 13.1305 27.371 11.4844 26.0312 9.99146C28.864 7.19692 31.7351 5.28286 34.0703 5.28286C34.5679 5.28286 35.0273 5.3977 35.4101 5.62739ZM31.1226 28.3282C30.4335 29.5532 29.6296 30.7782 28.7874 32.0032C27.371 32.118 25.9546 32.1563 24.5 32.1563C23.007 32.1563 21.5906 32.118 20.2125 32.0032C19.3703 30.7782 18.6046 29.5532 17.9156 28.3282C17.1882 27.0649 16.4992 25.7633 15.8867 24.5C16.4992 23.2368 17.1882 21.9352 17.9156 20.6719C18.6046 19.4469 19.4085 18.2219 20.2507 16.9969C21.6671 16.8821 23.0835 16.8438 24.5382 16.8438C26.0312 16.8438 27.4476 16.8821 28.8257 16.9969C29.6679 18.2219 30.4335 19.4469 31.1226 20.6719C31.85 21.9352 32.539 23.2368 33.1515 24.5C32.5007 25.7633 31.85 27.0266 31.1226 28.3282ZM34.2999 27.0649C34.8742 28.4047 35.3335 29.7063 35.7546 31.0079C34.4531 31.3141 33.075 31.5438 31.6203 31.7352C32.0796 31.0079 32.5773 30.2422 32.9984 29.4383C33.4578 28.6344 33.8789 27.8305 34.2999 27.0649ZM24.5 37.4391C23.5812 36.4438 22.7007 35.3719 21.8585 34.2618C22.739 34.3 23.6195 34.3383 24.5 34.3383C25.3804 34.3383 26.2609 34.3 27.1414 34.2618C26.2992 35.3719 25.4187 36.4438 24.5 37.4391ZM17.3796 31.6969C15.925 31.5055 14.5468 31.2758 13.2453 30.9696C13.6664 29.7063 14.1257 28.3665 14.7 27.0266C15.121 27.7922 15.5421 28.5961 16.0015 29.3618C16.4609 30.204 16.9203 30.9313 17.3796 31.6969ZM14.7 21.9352C14.1257 20.5954 13.6664 19.2938 13.2453 17.9922C14.5468 17.686 15.925 17.4563 17.3796 17.2649C16.9203 17.9922 16.4226 18.7579 16.0015 19.5618C15.5421 20.3657 15.121 21.1696 14.7 21.9352ZM24.5 11.561C25.4187 12.5563 26.2992 13.6282 27.1414 14.7383C26.2609 14.7 25.3804 14.6618 24.5 14.6618C23.6195 14.6618 22.739 14.7 21.8585 14.7383C22.7007 13.6282 23.5812 12.5563 24.5 11.561ZM32.9984 19.6L31.6203 17.3032C33.075 17.4946 34.4531 17.7243 35.7546 18.0305C35.3335 19.2938 34.8742 20.6336 34.2999 21.9735C33.8789 21.1696 33.4578 20.3657 32.9984 19.6ZM12.1351 13.3985C11.4843 9.37895 12.0203 6.54614 13.5898 5.62739C13.9726 5.3977 14.432 5.28286 14.9296 5.28286C17.2265 5.28286 20.0976 7.15864 22.9687 9.99146C21.6289 11.4461 20.289 13.1305 18.9874 14.968C16.7671 15.1594 14.6617 15.504 12.671 15.925C12.4414 15.0446 12.2882 14.2024 12.1351 13.3985ZM2.67964 24.5C2.67964 22.7008 4.86167 20.7868 8.6898 19.3704C9.45542 19.0641 10.2976 18.7961 11.1398 18.5665C11.7523 20.4805 12.5179 22.5094 13.4367 24.5383C12.5179 26.5672 11.714 28.5579 11.1398 30.4719C5.85698 28.9407 2.67964 26.6438 2.67964 24.5ZM13.5898 43.3727C12.0203 42.454 11.4843 39.6211 12.1351 35.6016C12.25 34.7977 12.4414 33.9555 12.671 33.0751C14.6617 33.5344 16.7671 33.8407 18.9874 34.0321C20.289 35.8696 21.6289 37.5157 22.9687 39.0086C20.1359 41.8032 17.2648 43.7172 14.9296 43.7172C14.432 43.7172 13.9726 43.6024 13.5898 43.3727ZM36.8648 35.6016C37.5156 39.6211 36.9796 42.454 35.4101 43.3727C35.0273 43.6024 34.5679 43.7172 34.0703 43.7172C31.7734 43.7172 28.9023 41.8415 26.0312 39.0086C27.371 37.554 28.7109 35.8696 30.0125 34.0321C32.2328 33.8407 34.3382 33.4961 36.3289 33.0751C36.5585 33.9555 36.7117 34.7977 36.8648 35.6016ZM40.3101 29.6297C39.5445 29.936 38.7023 30.204 37.8601 30.4336C37.2476 28.5196 36.482 26.4907 35.5632 24.4618C36.482 22.4329 37.2859 20.4422 37.8601 18.5282C43.1429 20.0594 46.3203 22.3563 46.3203 24.5C46.3203 26.2993 44.1 28.2133 40.3101 29.6297Z" fill="#61DAFB"/>
</svg>
