<?xml version="1.0" encoding="utf-8"?>
<!-- Generator: Adobe Illustrator 27.5.0, SVG Export Plug-In . SVG Version: 6.00 Build 0)  -->
<svg version="1.1" id="Layer" xmlns="http://www.w3.org/2000/svg" xmlns:xlink="http://www.w3.org/1999/xlink" x="0px" y="0px"
	 viewBox="0 0 500 500" style="enable-background:new 0 0 500 500;" xml:space="preserve">
<g>
	<g>
		
			<ellipse transform="matrix(0.0054 -1 1 0.0054 -224.0726 588.9106)" style="fill:#F2F2F2;" cx="184.02" cy="407.101" rx="28.141" ry="48.744"/>
		<g>
			<g>
				<path style="fill:#F2F2F2;" d="M351.27,414.707l-107.939-62.296c-2.31-1.334-2.021-3.664,0.647-5.204l6.128-3.538
					c2.668-1.54,6.703-1.707,9.014-0.374l107.939,62.296c2.31,1.334,2.021,3.664-0.647,5.204l-6.128,3.538
					C357.616,415.874,353.58,416.041,351.27,414.707z"/>
				<path style="fill:#999999;" d="M361.886,108.64l-99.323-57.344c-1.865-1.077-3.549-1.108-4.86-0.363l-9.798,5.668l11.534,8.969
					l2.82-0.715v235.368c0,5.52,3.356,11.933,7.496,14.323l87.087,63.746v3.929l10.137-5.918l-0.001-0.04
					c1.47-0.976,2.403-3.019,2.403-5.909V122.963C369.383,117.443,366.026,111.03,361.886,108.64z"/>
				<path style="fill:#E6E6E6;" d="M346.698,129.653v-11.108l-9.767,7.338l-42.687-17.89L262.26,84.714V64.851l-2.834,0.708
					l-11.513-8.957l9.793-5.668c1.316-0.734,2.986-0.709,4.858,0.354l99.317,57.363c2.733,1.569,5.111,4.883,6.402,8.528
					L346.698,129.653z"/>
				<g>
					<path style="fill:#CCCCCC;" d="M352.028,381.771l-99.323-57.344c-4.14-2.39-7.496-8.803-7.496-14.323V62.711
						c0-5.52,3.356-8.057,7.496-5.667l99.323,57.344c4.14,2.391,7.496,8.803,7.496,14.323v247.392
						C359.524,381.623,356.168,384.161,352.028,381.771z"/>
					<path style="fill:#333333;" d="M247.399,311.564V63.78c0-4.023,2.446-5.873,5.463-4.13l99.007,57.161
						c3.018,1.742,5.464,6.416,5.464,10.439v247.784c0,4.023-2.446,5.872-5.464,4.131l-99.007-57.162
						C249.845,320.261,247.399,315.587,247.399,311.564z"/>
					<path style="fill:#80C5FF;" d="M354.428,129.88v240.016c0,3.571-2.52,4.982-5.61,3.199l-92.892-53.631
						c-3.11-1.796-5.632-6.145-5.632-9.714V69.759c0-3.569,2.521-5.007,5.632-3.211l16.97,9.798
						c0.708,0.409,1.331,1.306,1.527,2.201l0.786,3.586c0.591,3.435,3.287,7.254,6.442,9.076l41.417,23.912
						c3.155,1.822,5.873,1.127,6.443-1.637l0.786-2.678c0.196-0.668,0.819-0.846,1.527-0.437l16.992,9.81
						C351.908,121.963,354.428,126.31,354.428,129.88z"/>
					<g>
						<path style="fill:#57B2FF;" d="M333.598,189.459c1.627,0.939,2.937,3.209,2.932,5.085l-0.029,10.16
							c-0.005,1.869-1.324,2.628-2.951,1.688l-59.555-34.384c-1.627-0.939-2.937-3.216-2.932-5.085l0.029-10.16
							c0.005-1.876,1.324-2.628,2.951-1.689L333.598,189.459z"/>
					</g>
					<g>
						<path style="fill:#57B2FF;" d="M333.598,224.998c1.627,0.939,2.937,3.215,2.932,5.085l-0.029,10.167
							c-0.006,1.87-1.324,2.621-2.951,1.682l-59.555-34.384c-1.627-0.939-2.937-3.209-2.932-5.078l0.029-10.167
							c0.005-1.87,1.324-2.628,2.951-1.689L333.598,224.998z"/>
					</g>
					<g>
						<polygon style="fill:#B3B3B3;" points="250.303,217.897 250.303,235.095 245.204,232.15 245.204,214.952 						"/>
						<path style="fill:#57B2FF;" d="M336.54,272.209l-0.023,8.111c-0.023,2.492-1.79,3.512-3.965,2.266l-82.249-47.491v-17.198
							l82.294,47.492C334.772,266.658,336.54,269.694,336.54,272.209z"/>
					</g>
					<g>
						<path style="fill:#57B2FF;" d="M288.69,285.494c1.568,0.905,2.837,3.104,2.832,4.905l-0.079,27.846
							c-0.005,1.802-1.283,2.523-2.851,1.618l-24.233-13.991c-1.568-0.905-2.831-3.093-2.826-4.895l0.079-27.846
							c0.005-1.802,1.277-2.533,2.845-1.628L288.69,285.494z"/>
					</g>
					<g>
						<path style="fill:#57B2FF;" d="M333.704,311.435c1.568,0.906,2.831,3.1,2.826,4.902l-0.079,27.846
							c-0.005,1.802-1.276,2.526-2.844,1.621l-24.233-13.991c-1.568-0.905-2.837-3.097-2.832-4.899l0.079-27.846
							c0.005-1.802,1.283-2.53,2.85-1.625L333.704,311.435z"/>
					</g>
					<g>
						<path style="fill:#57B2FF;" d="M331.965,133.926c2.529,1.46,4.574,5.002,4.565,7.914l-0.068,23.836
							c-0.008,2.906-2.066,4.079-4.595,2.619l-68.78-39.71c-2.529-1.46-4.574-5.001-4.565-7.907l0.068-23.836
							c0.008-2.913,2.066-4.085,4.595-2.625L331.965,133.926z"/>
					</g>
					<g>
						<polygon style="fill:#B3B3B3;" points="250.303,143.488 250.303,190.186 245.204,187.241 245.204,140.542 						"/>
						<path style="fill:#57B2FF;" d="M257.916,152.438l-0.113,37.545c0,2.492-1.767,3.489-3.965,2.243l-3.535-2.039v-46.698
							l3.671,2.13C256.171,146.887,257.916,149.945,257.916,152.438z"/>
					</g>
					<g>
						<path style="fill:#666666;" d="M285.44,87.731c0,1.91-1.349,2.679-3.013,1.718c-1.664-0.961-3.013-3.288-3.013-5.197
							c0-1.91,1.349-2.679,3.013-1.718C284.091,83.494,285.44,85.821,285.44,87.731z"/>
						<path style="fill:#333333;" d="M284.078,86.945c0,1.046-0.739,1.468-1.651,0.942c-0.912-0.527-1.651-1.802-1.651-2.848
							c0-1.047,0.739-1.468,1.651-0.941C283.339,84.623,284.078,85.898,284.078,86.945z"/>
					</g>
					<path d="M316.838,101.615l-29.469-17.014c-0.486-0.28-0.879-1.032-0.879-1.679v-1.193c0-0.647,0.393-0.945,0.879-0.664
						l29.469,17.014c0.486,0.28,0.879,1.032,0.879,1.679v1.192C317.717,101.598,317.324,101.895,316.838,101.615z"/>
				</g>
				<g>
					<g style="enable-background:new    ;">
						<path style="fill:#E6E6E6;" d="M366.63,161.09c-0.584-0.34-1.394-0.291-2.288,0.225c-1.777,1.026-3.21,3.509-3.204,5.55
							l0.083,29.405c0.003,1.008,0.362,1.722,0.941,2.058l1.783,1.036c-0.579-0.336-0.938-1.051-0.941-2.058l-0.084-29.405
							c-0.006-2.042,1.427-4.524,3.204-5.55c0.894-0.516,1.704-0.564,2.288-0.225L366.63,161.09z"/>
						<g>
							<path style="fill:#BFBFBF;" d="M366.125,162.352c1.777-1.026,3.22-0.204,3.225,1.838l0.083,29.405
								c0.006,2.024-1.427,4.524-3.204,5.55c-1.777,1.026-3.219,0.185-3.225-1.838l-0.083-29.405
								C362.915,165.86,364.348,163.378,366.125,162.352z"/>
						</g>
						<g>
							<path style="fill:#CCCCCC;" d="M366.648,165.657c1.458-0.842,2.641-0.167,2.646,1.508l0.068,24.121
								c0.004,1.66-1.171,3.711-2.629,4.553c-1.458,0.842-2.641,0.152-2.646-1.508l-0.068-24.121
								C364.015,168.536,365.191,166.499,366.648,165.657z"/>
						</g>
					</g>
				</g>
			</g>
			<g>
				<g style="enable-background:new    ;">
					<path style="fill:#8482FF;" d="M242.111,84.912l-24.233-13.991c-0.788-0.455-1.5-0.497-2.015-0.197l-4.555,2.647
						c0.515-0.299,1.228-0.257,2.016,0.197l24.233,13.991c1.568,0.905,2.837,3.104,2.832,4.905l-0.079,27.846
						c-0.002,0.893-0.318,1.521-0.826,1.816l4.555-2.647c0.508-0.296,0.824-0.923,0.826-1.817l0.079-27.846
						C244.948,88.016,243.679,85.817,242.111,84.912z"/>
					<g>
						<path style="fill:#4D4BB7;" d="M237.556,87.559c1.568,0.905,2.837,3.104,2.832,4.905l-0.079,27.846
							c-0.005,1.802-1.283,2.523-2.85,1.618l-24.234-13.991c-1.568-0.905-2.831-3.093-2.826-4.895l0.079-27.846
							c0.005-1.802,1.277-2.533,2.845-1.628L237.556,87.559z"/>
					</g>
					<g>
						<g>
							<path style="fill:#FFFFFF;" d="M223.66,99.196l-2.276,6.111l-9.485-5.476l5.888-8.306c0.827-1.166,2.894,0.028,3.721,2.148
								L223.66,99.196z"/>
							<polygon style="fill:#E6E6E6;" points="227.397,108.779 221.384,105.307 223.66,99.196 							"/>
							<path style="fill:#FFFFFF;" d="M236.882,114.255l-9.485-5.476l-3.737-9.583l2.878-7.717c0.863-2.311,4.325-0.312,5.188,2.995
								L236.882,114.255z"/>
						</g>
						<path style="fill:#E6E6E6;" d="M223.704,88.335c0,1.342-0.948,1.882-2.118,1.207c-1.17-0.675-2.118-2.311-2.118-3.653
							c0-1.342,0.948-1.882,2.118-1.207C222.756,85.358,223.704,86.993,223.704,88.335z"/>
					</g>
				</g>
			</g>
			<g>
				<g style="enable-background:new    ;">
					<path style="fill:#8482FF;" d="M331.261,190.871l-59.555-34.384c-0.818-0.472-1.558-0.517-2.092-0.206l-4.555,2.647
						c0.534-0.311,1.274-0.266,2.092,0.206l59.555,34.384c1.627,0.939,2.937,3.209,2.932,5.085l-0.029,10.16
						c-0.003,0.931-0.331,1.586-0.86,1.894l4.555-2.647c0.529-0.308,0.857-0.963,0.86-1.893l0.029-10.16
						C334.198,194.08,332.888,191.811,331.261,190.871z"/>
					<g>
						<path style="fill:#4D4BB7;" d="M326.706,193.518c1.627,0.939,2.937,3.209,2.932,5.085l-0.029,10.16
							c-0.005,1.87-1.324,2.628-2.951,1.689l-59.555-34.384c-1.627-0.939-2.937-3.215-2.932-5.085l0.029-10.16
							c0.005-1.876,1.324-2.628,2.951-1.688L326.706,193.518z"/>
					</g>
					<path style="fill:#FFFFFF;" d="M324.729,199.739L270.11,168.05c-0.626-0.361-1.133,0.022-1.133,0.856l0,0
						c0,0.834,0.507,1.803,1.133,2.164l54.619,31.689c0.625,0.361,1.132-0.022,1.132-0.856l0,0
						C325.861,201.069,325.354,200.1,324.729,199.739z"/>
				</g>
			</g>
			<g>
				<g style="enable-background:new    ;">
					<path style="fill:#8482FF;" d="M331.261,226.411l-59.555-34.384c-0.817-0.472-1.557-0.515-2.091-0.205l-4.555,2.647
						c0.534-0.311,1.274-0.267,2.091,0.205l59.555,34.384c1.627,0.939,2.937,3.216,2.932,5.085l-0.029,10.167
						c-0.003,0.929-0.329,1.581-0.857,1.888l4.555-2.647c0.528-0.307,0.855-0.959,0.857-1.888l0.029-10.167
						C334.198,229.626,332.888,227.35,331.261,226.411z"/>
					<g>
						<path style="fill:#4D4BB7;" d="M326.706,229.058c1.627,0.939,2.937,3.216,2.932,5.085l-0.029,10.167
							c-0.005,1.869-1.324,2.621-2.951,1.682l-59.555-34.384c-1.627-0.939-2.937-3.209-2.932-5.078l0.029-10.167
							c0.005-1.869,1.324-2.628,2.951-1.688L326.706,229.058z"/>
					</g>
					<path style="fill:#FFFFFF;" d="M324.729,234.708l-54.619-31.689c-0.626-0.361-1.133,0.022-1.133,0.856l0,0
						c0,0.834,0.507,1.803,1.133,2.164l54.619,31.689c0.625,0.361,1.132-0.022,1.132-0.856l0,0
						C325.861,236.038,325.354,235.069,324.729,234.708z"/>
				</g>
			</g>
			<g>
				<g style="enable-background:new    ;">
					<path style="fill:#8482FF;" d="M242.111,261.411l-24.233-13.991c-0.788-0.455-1.5-0.497-2.015-0.197l-4.555,2.647
						c0.515-0.299,1.228-0.258,2.016,0.197l24.233,13.991c1.568,0.906,2.837,3.104,2.832,4.905l-0.079,27.846
						c-0.002,0.893-0.318,1.521-0.826,1.816l4.555-2.647c0.508-0.296,0.824-0.923,0.826-1.817l0.079-27.846
						C244.948,264.514,243.679,262.316,242.111,261.411z"/>
					<g>
						<path style="fill:#4D4BB7;" d="M237.556,264.058c1.568,0.906,2.837,3.104,2.832,4.905l-0.079,27.846
							c-0.005,1.802-1.283,2.523-2.85,1.618l-24.234-13.991c-1.568-0.905-2.831-3.093-2.826-4.895l0.079-27.846
							c0.005-1.802,1.277-2.533,2.845-1.628L237.556,264.058z"/>
					</g>
					<g>
						<path style="fill:#FFFFFF;" d="M236.762,273.518v0.04l-11.545,0.969L213.5,260.088l0,0c0-0.453,0.32-0.636,0.715-0.408
							l21.832,12.605C236.441,272.513,236.762,273.065,236.762,273.518z"/>
						<path style="fill:#FFFFFF;" d="M225.217,275.443l11.545-0.973v14.056c0,0.453-0.32,0.636-0.715,0.408l-21.832-12.605
							c-0.395-0.228-0.715-0.78-0.715-1.234v-14.1l11.545,14.233L225.217,275.443z"/>
					</g>
				</g>
			</g>
			<g>
				<g style="enable-background:new    ;">
					<path style="fill:#8482FF;" d="M330.262,266.807l-107.821-62.251c-1.095-0.632-2.089-0.692-2.807-0.275l-4.555,2.647
						c0.717-0.417,1.711-0.358,2.807,0.275l107.821,62.251c2.181,1.259,3.938,4.302,3.931,6.808l-0.023,8.115
						c-0.004,1.247-0.443,2.124-1.152,2.537l4.555-2.647c0.709-0.412,1.148-1.29,1.152-2.536l0.023-8.115
						C334.2,271.109,332.444,268.067,330.262,266.807z"/>
					<g>
						<path style="fill:#4D4BB7;" d="M325.707,269.454c2.181,1.259,3.938,4.302,3.931,6.808l-0.023,8.115
							c-0.007,2.506-1.775,3.521-3.957,2.261l-107.821-62.251c-2.175-1.256-3.938-4.309-3.931-6.815l0.023-8.115
							c0.007-2.506,1.781-3.51,3.956-2.255L325.707,269.454z"/>
					</g>
					<path style="fill:#FFFFFF;" d="M322.865,275.573L219.08,215.29c-0.626-0.361-1.133,0.022-1.133,0.857l0,0
						c0,0.834,0.507,1.803,1.133,2.164l103.785,60.282c0.625,0.361,1.133-0.022,1.133-0.857l0,0
						C323.998,276.903,323.491,275.934,322.865,275.573z"/>
				</g>
			</g>
			<g>
				<g style="enable-background:new    ;">
					<path style="fill:#8482FF;" d="M286.353,286.906l-24.233-13.991c-0.788-0.455-1.5-0.496-2.016-0.197l-4.555,2.647
						c0.515-0.299,1.228-0.257,2.015,0.197l24.234,13.991c1.568,0.905,2.837,3.103,2.832,4.905l-0.079,27.846
						c-0.003,0.893-0.318,1.521-0.826,1.817l4.555-2.647c0.508-0.295,0.824-0.923,0.826-1.817l0.079-27.846
						C289.19,290.01,287.921,287.812,286.353,286.906z"/>
					<g>
						<path style="fill:#4D4BB7;" d="M281.798,289.554c1.568,0.905,2.837,3.103,2.832,4.905l-0.079,27.846
							c-0.005,1.802-1.283,2.523-2.851,1.618l-24.233-13.991c-1.568-0.905-2.831-3.093-2.826-4.895l0.079-27.846
							c0.005-1.802,1.277-2.533,2.844-1.628L281.798,289.554z"/>
					</g>
					<g>
						<g>
							<path style="fill:#FFFFFF;" d="M279.624,314.583l-20.015-11.556c-1.208-0.697-2.19-2.392-2.19-3.778v-11.03
								c0-1.386,0.983-1.946,2.19-1.249l20.015,11.556c1.208,0.697,2.19,2.392,2.19,3.777v11.03
								C281.814,314.721,280.832,315.281,279.624,314.583z M259.609,288.019c-0.704-0.407-1.277-0.08-1.277,0.729v11.029
								c0,0.809,0.573,1.797,1.277,2.204l20.015,11.556c0.704,0.406,1.278,0.08,1.278-0.729v-11.03c0-0.808-0.573-1.797-1.278-2.203
								L259.609,288.019z"/>
						</g>
						<g>
							<path style="fill:#FFFFFF;" d="M269.617,307.008c-2.935-1.695-5.323-5.814-5.323-9.182c0-3.368,2.388-4.73,5.323-3.035
								c2.935,1.695,5.323,5.813,5.323,9.182C274.94,307.341,272.552,308.703,269.617,307.008z M269.617,295.839
								c-2.432-1.404-4.411-0.276-4.411,2.514c0,2.791,1.979,6.204,4.411,7.608c2.432,1.404,4.41,0.276,4.41-2.515
								C274.027,300.656,272.049,297.243,269.617,295.839z"/>
						</g>
						<g>
							<path style="fill:#FFFFFF;" d="M275.936,297.254l-12.639-7.297v-2.644c0-0.909,0.645-1.277,1.437-0.82l9.764,5.637
								c0.792,0.458,1.437,1.57,1.437,2.479V297.254z M264.21,289.436l10.813,6.243v-1.597c0-0.332-0.235-0.738-0.525-0.905
								l-9.764-5.637c-0.289-0.167-0.525-0.033-0.525,0.299V289.436z"/>
						</g>
					</g>
				</g>
			</g>
			<g>
				<g style="enable-background:new    ;">
					<path style="fill:#8482FF;" d="M331.367,312.848l-24.234-13.991c-0.789-0.456-1.504-0.497-2.021-0.197l-4.555,2.647
						c0.517-0.3,1.232-0.258,2.021,0.197l24.233,13.991c1.568,0.905,2.831,3.1,2.826,4.902l-0.079,27.846
						c-0.003,0.895-0.318,1.524-0.826,1.82l4.555-2.647c0.509-0.296,0.824-0.925,0.826-1.82l0.079-27.846
						C334.198,315.948,332.935,313.753,331.367,312.848z"/>
					<g>
						<path style="fill:#4D4BB7;" d="M326.812,315.495c1.568,0.905,2.831,3.1,2.826,4.902l-0.079,27.846
							c-0.005,1.802-1.277,2.526-2.845,1.621l-24.233-13.991c-1.568-0.905-2.837-3.096-2.832-4.898l0.079-27.846
							c0.005-1.802,1.283-2.53,2.85-1.624L326.812,315.495z"/>
					</g>
					<path style="fill:#FFFFFF;" d="M314.75,314.888c-5.539-3.198-10.029-1.527-10.029,3.731c0,3.405,1.889,7.475,4.721,10.793
						c-0.132,0.888-0.708,2.751-3.242,1.32c0,0,3.498,3.857,6.813,2.043c0.565,0.42,1.143,0.812,1.737,1.155
						c5.539,3.198,10.029,1.527,10.029-3.731C324.779,324.941,320.289,318.086,314.75,314.888z"/>
				</g>
			</g>
			<g>
				<g style="enable-background:new    ;">
					<path style="fill:#8482FF;" d="M329.628,135.339l-68.78-39.71c-1.272-0.734-2.425-0.803-3.257-0.319l-4.555,2.647
						c0.833-0.484,1.986-0.415,3.257,0.319l68.78,39.711c2.529,1.46,4.574,5.001,4.565,7.914l-0.068,23.836
						c-0.004,1.444-0.514,2.46-1.336,2.937l4.555-2.647c0.822-0.478,1.332-1.493,1.336-2.937l0.068-23.836
						C334.202,140.341,332.157,136.799,329.628,135.339z"/>
					<g>
						<path style="fill:#4D4BB7;" d="M325.073,137.986c2.529,1.46,4.574,5.002,4.565,7.914l-0.068,23.836
							c-0.008,2.906-2.066,4.079-4.595,2.619l-68.78-39.71c-2.529-1.46-4.573-5.002-4.565-7.908l0.068-23.836
							c0.008-2.913,2.066-4.085,4.595-2.625L325.073,137.986z"/>
					</g>
					<g>
						<path style="fill:#FFFFFF;" d="M323.344,143.708l-64.851-37.594c-0.625-0.361-1.133,0.022-1.133,0.856l0,0
							c0,0.834,0.507,1.803,1.133,2.164l64.851,37.594c0.626,0.361,1.133-0.022,1.133-0.856l0,0
							C324.477,145.038,323.97,144.069,323.344,143.708z"/>
						<path style="fill:#FFFFFF;" d="M323.344,152.71l-64.851-37.594c-0.625-0.361-1.133,0.022-1.133,0.856l0,0
							c0,0.834,0.507,1.803,1.133,2.164l64.851,37.594c0.626,0.361,1.133-0.022,1.133-0.856l0,0
							C324.477,154.04,323.97,153.071,323.344,152.71z"/>
						<path style="fill:#FFFFFF;" d="M323.344,161.712l-64.851-37.594c-0.625-0.361-1.133,0.022-1.133,0.856l0,0
							c0,0.834,0.507,1.803,1.133,2.164l64.851,37.594c0.626,0.361,1.133-0.022,1.133-0.856l0,0
							C324.477,163.042,323.97,162.073,323.344,161.712z"/>
					</g>
				</g>
			</g>
		</g>
		<g>
			<g>
				<path style="fill:#FFB78C;" d="M218.392,144.568c-0.066-0.215-0.174-0.418-0.204-0.641c-0.031-0.232,0.024-0.467,0.03-0.701
					c0.012-0.52-0.239-1.039-0.655-1.352c-0.165-0.124-0.355-0.218-0.492-0.372c-0.13-0.145-0.203-0.331-0.307-0.496
					c-0.51-0.811-1.629-0.958-2.583-0.875c-1.979,0.172-3.856,0.966-5.584,1.945c-2.353,1.333-4.533,3.064-6.023,5.32
					c-0.583,0.883-1.054,1.837-1.443,2.82c-0.342,0.864-0.622,1.751-0.869,2.647c-0.164,0.595-0.38,1.177-0.507,1.783
					c-0.058,0.278-0.101,0.57-0.118,0.852c-0.016,0.269,0.023,0.53-0.139,0.767c-0.196,0.286-18.618,23.318-19.925,24.943
					c-1.152,1.433-2.084,3.204-3.428,4.437c-2.8,2.569-6.435,4.418-9.826,6.065c-2.757,1.339-7.643,2.551-6.426,6.771
					c0.359,1.245,1.388,2.158,2.278,3.101c1.508,1.598,2.726,3.468,3.578,5.493c0.051,0.121,0.109,0.252,0.224,0.313
					c0.164,0.087,0.362-0.001,0.526-0.088c4.805-2.563,17.952-11.842,20.179-13.194c0.002-0.07-0.011-0.139-0.011-0.209
					c0.673-0.334,1.193-0.954,1.65-1.57c1.621-2.179,3.142-4.431,4.581-6.734c1.439-2.304,2.797-4.658,4.094-7.044
					c1.3-2.391,2.541-4.815,3.746-7.255c1.206-2.443,4-8.354,4.231-8.847c0.173-0.369,0.273-0.925,0.678-1.119
					c0.259-0.124,0.557-0.12,0.821-0.26c0.298-0.157,0.56-0.377,0.806-0.605c2.681-2.482,4.186-5.95,6.296-8.934
					c0.376-0.532,0.778-1.055,1.282-1.467c0.956-0.783,2.278-1.172,2.925-2.224c0.262-0.426,0.384-0.92,0.502-1.405
					C218.429,145.819,218.577,145.17,218.392,144.568z"/>
				<path style="fill:#4D4BB7;" d="M147.517,413.723c0.14,1.666,0.653,3.208,1.922,4.087c0.733,0.507,1.649,0.677,2.54,0.712
					c2.44,0.095,4.904-0.762,6.758-2.35c2.092-1.793,3.382-4.421,5.612-6.039c1.188-0.862,2.578-1.387,3.917-1.988
					c3.313-1.486,6.396-3.484,9.106-5.9c0.586-0.523,1.284-1.168,1.57-1.921c0.46-1.213-0.024-2.582-1.092-3.242
					c-0.658-0.406-1.424-0.599-2.184-0.735c-2.71-0.484-5.492-0.311-8.234-0.062c-3.488,0.317-7.004,0.764-10.281,1.999
					c-1.424,0.536-2.795,1.226-4.049,2.09c-0.474,0.326-1.16,1.154-1.724,1.254c-0.202,0.036-1.542-0.435-1.517-0.515
					c-0.769,2.435-1.54,4.88-1.965,7.398C147.656,409.929,147.363,411.901,147.517,413.723z"/>
				<path style="fill:#333333;" d="M172.803,284.417c-0.134-0.95-0.624-1.805-1.07-2.654c-3.019-5.746-4.39-12.147-6.577-18.217
					c-1.056-2.929-2.299-5.813-4.019-8.419c-1.016-1.541-3.831-5.661-6.245-4.8c-0.345,0.123-0.621,0.382-0.885,0.636
					c-4.423,4.273-8.09,9.321-10.817,14.831c-2.785,5.627-4.052,11.003-4.069,17.28c-0.013,4.664,0.691,9.334,2.153,13.766
					c0.516,1.565,1.121,3.108,1.443,4.723c0.341,1.707,0.361,3.459,0.379,5.199c0.071,6.778,0.142,13.556,0.213,20.334
					c0.033,3.115,0.039,6.242,0.258,9.33c0.219,3.09,0.272,6.438-0.606,9.433c-0.923,3.152-1.525,6.402-1.922,9.66
					c-1.042,8.571,0.766,17.204,2.563,25.649c1.62,7.613,3.241,15.226,4.861,22.839c0.095,0.444,0.202,0.913,0.519,1.238
					c0.251,0.258,0.603,0.39,0.949,0.489c2.087,0.596,4.363,0.23,6.348-0.647c1.986-0.877,3.719-2.235,5.348-3.669
					c0.43-0.378,0.863-0.775,1.123-1.285c0.646-1.271,0.044-2.788-0.496-4.107c-4.841-11.81-4.467-25.221-1.529-37.643
					c1.005-4.247,2.299-8.439,2.882-12.764c0.044-0.324,0.066-0.653,0.061-0.979c0.005-0.022,0.014-0.043,0.019-0.065
					c4.642-19.135,6.989-38.745,9.073-58.325C172.825,285.641,172.889,285.024,172.803,284.417z"/>
				<path style="fill:#8482FF;" d="M207.928,394.242c-2.771-0.124-5.562-0.143-8.316,0.236c-2.086,0.287-4.413,0.983-6.011,2.411
					c-1.077,0.963-1.906,2.17-2.668,3.397c-2.079,3.346-5.911,11.162-0.376,13.422c0.954,0.389,2.025,0.398,3.043,0.242
					c3.51-0.536,6.526-2.894,10.022-3.512c1.299-0.23,2.626-0.211,3.945-0.248c4.719-0.129,9.549-1.02,13.524-3.566
					c1.913-1.225,3.152-3.009,3.688-5.232c0.729-3.023-1.116-4.897-3.907-5.535C216.627,394.887,212.277,394.436,207.928,394.242z"
					/>
				<path style="fill:#424242;" d="M203.357,392.126c-2.817-9.332-4.231-19.085-4.181-28.833c0.04-7.798-1.021-15.998-0.041-23.715
					c0.987-7.772,0.38-16.254-1.009-23.957c-2.249-12.468-7.747-24.288-8.845-36.91c-0.414-4.757-0.195-9.575-1.021-14.278
					c-5.64,2.915-12.33,3.743-18.511,2.291c-3.222-0.755-6.256-2.097-9.346-3.248c-1.289-0.537-2.673-0.652-3.977-1.127
					c-1.161-0.423-1.93-1.127-2.897-1.934c-4.886,5.894-7.791,13.4-8.146,21.048c-0.269,5.8,0.929,11.655,3.408,16.903
					c2.598,5.5,6.795,9.375,11.309,13.332c4.355,3.818,8.937,7.54,12.08,12.406c2.717,4.205,4.167,9.566,5.503,14.346
					c1.511,5.407,2.687,10.943,2.941,16.565c0.234,5.187-0.47,9.982,0.436,15.184c0.411,2.36,0.981,4.692,1.707,6.974
					c2.65,8.327,7.411,16.314,7.11,25.047c-0.013,0.37-0.024,0.775,0.202,1.068c0.173,0.223,0.451,0.335,0.72,0.421
					c3.586,1.153,7.527-0.412,10.521-2.697c1.029-0.786,2.024-1.702,2.511-2.902C204.595,396.216,203.947,394.081,203.357,392.126z"
					/>
				<path style="fill:#D9D9D9;" d="M139.201,197.156c-1.059,5.724-0.474,12.021,0.627,17.409c1.601,7.834,3.843,15.537,6.694,23.008
					c1.162,3.045,2.44,6.11,2.701,9.359c0.458,5.706-2.251,11.138-4.955,16.183c-0.252,0.47-0.512,0.976-0.459,1.507
					c0.044,0.432,0.29,0.814,0.54,1.17c3.282,4.676,8.255,8.007,13.633,9.933c5.378,1.926,11.157,2.52,16.869,2.448
					c4.85-0.061,9.812-0.624,14.157-2.78c0.244-7.123,0.489-14.248,0.425-21.376c-0.06-6.701-1.674-13.743-0.077-20.359
					c0.577-2.393,1.568-4.668,2.193-7.049c0.666-2.537,0.908-5.185,0.716-7.801c-0.157-2.131-0.774-4.493-2.622-5.566
					c-0.576-0.334-1.229-0.513-1.818-0.823c-2.799-1.471-3.477-5.409-6.176-7.056c-0.977-0.596-2.125-0.828-3.227-1.136
					c-11.805-3.303-20.72-17.802-33.858-15.715c-0.702,0.111-1.428,0.24-2.016,0.64c-0.635,0.431-1.035,1.127-1.371,1.817
					C140.241,192.896,139.603,194.985,139.201,197.156z"/>
				<path style="fill:#FFB78C;" d="M144.981,192.605c-0.167,0.326-0.319,0.658-0.433,1.005c-0.832,2.538,1.531,4.22,3.485,5.302
					c3.146,1.744,6.775,2.52,10.372,2.535c2.174,0.009,4.342-0.253,6.466-0.704c0.819-0.174,1.383-0.193,1.795-0.931
					c0.481-0.862,0.539-1.935,0.591-2.896c0.118-2.173,0.177-4.35,0.236-6.525c0.091-3.371,0.183-6.741,0.274-10.112
					c0.038-1.423-1.945-1.016-3.003-1.153c-1.533-0.199-3.064-0.419-4.583-0.706c-3.011-0.568-5.995-1.398-8.736-2.791
					c-0.725-0.369-1.879-1.255-2.702-1.298c-1.03-0.054-1.016,1.308-1.129,2.137c-0.313,2.294-0.254,4.616-0.332,6.925
					c-0.091,2.705-0.384,5.476-1.599,7.894C145.462,191.731,145.208,192.163,144.981,192.605z"/>
				<path style="fill:#FFE5CC;" d="M173.532,159.123c0.307,0.49,0.615,1.005,0.677,1.58c0.059,0.545-0.11,1.089-0.112,1.638
					c-0.008,1.911,1.856,3.196,3.371,4.36c0.6,0.461,1.232,1.091,1.137,1.842c-0.038,0.301-0.192,0.572-0.329,0.843
					c-1.067,2.12-1.131,4.532-0.996,6.853c0.086,1.475,1.221,5.424-0.271,6.37c-1.771,1.121-3.692,2.004-5.696,2.618
					c-1.177,0.36-2.597,0.639-3.728-0.01c-0.973-0.558-1.63-1.691-2.51-2.423c-1.047-0.871-2.454,0.385-3.583,0.757
					c-1.473,0.486-3.006,0.788-4.551,0.911c-3.003,0.239-6.063-0.192-8.876-1.271c-1.801-0.691-3.523-1.64-4.942-2.947
					c-1.585-1.459-2.744-3.315-3.812-5.186c-1.429-2.502-2.756-5.15-3.063-8.015c-0.326-3.049,0.566-6.076,2.016-8.736
					c1.435-2.632,3.231-4.573,5.587-6.369c4.349-3.317,10.139-3.995,15.609-4.001c1.991-0.002,3.645,0.162,5.461,0.934
					c1.908,0.811,3.461,2.12,4.286,3.992C170.199,155.109,172.228,157.036,173.532,159.123z"/>
				<path style="fill:#733118;" d="M161.639,173.266c0.651-1.1,1.696-1.916,3.051-2.653c2.856-1.551,3.372-5.089,3.737-7.965
					c0.47-3.7,0.383-7.85-0.915-11.372c-1.19-3.228-5.191-4.531-8.272-4.911c-3.802-0.468-7.732-0.045-11.285,1.387
					c-5.282,2.129-9.69,7.107-12.096,12.162c-2.93,6.156-2.981,12.54-2.533,19.171c0.152,2.241,0.23,3.811,1.795,5.573
					c0.958,1.078,2.172,1.897,3.428,2.605c6.843,3.856,15.375,4.572,22.765,1.911c1.106-0.398,2.204-0.879,3.095-1.645
					c2.2-1.893,1.86-4.535,0.054-6.589c-0.925-1.052-2.503-1.197-3.21-2.524c-0.331-0.622-0.385-1.353-0.383-2.058
					C160.875,175.103,161.143,174.103,161.639,173.266z"/>
				<g>
					<g style="enable-background:new    ;">
						<path style="fill:#8482FF;" d="M251.642,147.041l-34.785-20.083c-1.098-0.634-2.093-0.693-2.811-0.275l-4.555,2.647
							c0.718-0.417,1.713-0.359,2.812,0.275l34.785,20.083c2.181,1.259,3.944,4.312,3.937,6.812l-0.106,37.532
							c-0.003,1.241-0.442,2.115-1.151,2.526l4.555-2.647c0.708-0.411,1.147-1.285,1.151-2.526l0.107-37.532
							C255.586,151.353,253.823,148.3,251.642,147.041z"/>
						<g>
							<path style="fill:#4D4BB7;" d="M247.087,149.688c2.181,1.259,3.944,4.312,3.937,6.812l-0.106,37.532
								c-0.007,2.499-1.781,3.51-3.962,2.251L212.17,176.2c-2.181-1.259-3.944-4.312-3.936-6.812l0.106-37.532
								c0.007-2.499,1.781-3.51,3.962-2.251L247.087,149.688z"/>
						</g>
						<path style="fill:#FFFFFF;" d="M228.445,150.353c-6.122-3.535-11.08-0.708-11.08,6.317c0,7.019,4.958,15.576,11.08,19.111
							c6.117,3.532,11.08,0.702,11.08-6.317C239.525,162.438,234.562,153.884,228.445,150.353z M225.74,167.365v-11.431
							l8.627,10.699L225.74,167.365z"/>
					</g>
				</g>
				<path style="fill:#FFE5CC;" d="M193.294,229.87c10.988,0.946,22.046,0.133,33.034-0.813c0.053-0.004,0.106-0.017,0.16-0.022
					c2.771-0.268,3.409-2.598,4.497-4.773c0.973-1.946,1.844-3.941,2.696-5.943c4.577-10.756,8.598-21.745,12.102-32.897
					c0.637-0.987,1.684-1.682,2.616-2.429c3.8-3.046,6.9-6.959,8.996-11.355c0.67-1.406,1.232-3.097,0.495-4.469
					c-0.229-0.427-0.574-0.793-0.744-1.247c-0.202-0.54-0.135-1.148-0.306-1.699c-0.386-1.245-1.833-1.853-2.445-3.003
					c-0.244-0.458-0.401-1.044-0.886-1.228c-0.4-0.152-0.862,0.066-1.137,0.394c-0.275,0.328-0.41,0.747-0.565,1.146
					c-0.89,2.281-2.673,4.2-4.883,5.255c-0.426,0.204-0.956,0.368-1.345,0.101c0.679-1.086,1.181-2.283,1.48-3.528
					c0.173-0.721,0.273-1.507-0.03-2.184c-0.303-0.677-1.143-1.158-1.811-0.836c-0.655,0.315-0.813,1.152-0.973,1.86
					c-0.268,1.183-0.761,2.315-1.446,3.316c-0.711,1.039-1.62,1.932-2.315,2.982c-0.587,0.887-1.009,1.872-1.307,2.891
					c-0.54,1.842-0.728,3.812-0.778,5.725c-0.026,1.019-0.153,2.078-0.36,3.123c-0.043,0.108-0.087,0.217-0.126,0.324
					c-1.149,3.156-16.544,32.213-18.776,35.584c-0.654-0.007-1.3-0.02-1.912-0.092c-7.27-0.846-14.606-2.028-21.288-5.016
					c-3.382-1.513-6.581-3.481-10.132-4.54c-3.551-1.059-7.675-1.071-10.661,1.123c-2.382,1.75-3.598,4.58-4.177,7.399
					c-2.232,10.873,11.578,13.605,19.42,14.552C191.355,229.688,192.324,229.786,193.294,229.87z"/>
				<path style="fill:#F2F2F2;" d="M205.023,221.123c0.036,3.772-0.892,7.355-2.675,10.675c-0.639,1.19-1.283,1.627-2.698,1.601
					c-1.008-0.018-2.01-0.141-3.009-0.278c-5.629-0.774-11.194-2.009-16.622-3.688c-2.589-0.801-4.804-1.38-7.098-2.914
					c-1.253-0.838-2.358-1.912-3.144-3.204c-1.283-2.112-1.74-4.635-1.275-7.063c0.84-4.379,3.827-8.421,8-10.13
					c0.548-0.225,1.114-0.411,1.696-0.523c1.205-0.232,2.448-0.138,3.662,0.04c3.448,0.507,6.756,1.686,10.036,2.863
					c3.477,1.248,6.952,2.502,10.424,3.763c1.517,0.551,1.604,1.869,1.986,3.266C204.809,217.363,205.005,219.225,205.023,221.123z"
					/>
				<path style="fill:#FFE5CC;" d="M205.262,144.91c-0.953,0.605-1.987,1.137-2.714,2c-1.065,1.264-1.296,3.052-1.09,4.692
					c0.09,0.717,0.264,1.445,0.68,2.036s1.116,1.022,1.836,0.954c0.67-0.063,1.235-0.534,1.654-1.061
					c0.444-0.559,0.777-1.206,0.974-1.893c0.396-1.378,0.268-2.949,1.085-4.127c0.373-0.539,0.911-0.938,1.408-1.366
					c0.627-0.539,1.206-1.141,1.666-1.828c0.331-0.495,0.603-1.04,0.707-1.627c0.104-0.587,0.029-1.218-0.288-1.723
					c-0.878-1.396-2.016,0.601-2.6,1.215C207.59,143.223,206.473,144.141,205.262,144.91z"/>
			</g>
		</g>
	</g>
	<g>
		<g>
			<path style="fill:#FFB78C;" d="M351.891,269.679c6.459,1.517,12.917,3.034,19.376,4.551c3.872,0.909,7.768,1.826,11.423,3.394
				c3.655,1.568,7.095,3.838,9.477,7.024c0.135,0.181,0.27,0.43,0.143,0.617c-0.081,0.119-0.236,0.157-0.377,0.186
				c-4.996,1.018-10.078,2.041-15.155,1.583c-3.91-0.353-7.694-1.577-11.327-3.067c-4.048-1.659-7.958-3.657-11.675-5.966
				c-2.955-1.836-5.889-3.978-7.541-7.04c-0.198-0.367-0.381-0.793-0.254-1.191c0.105-0.332,0.401-0.562,0.692-0.753
				c0.833-0.548,1.569-1.092,2.453-0.473C349.976,269.142,350.885,269.443,351.891,269.679z"/>
			<path style="fill:#FFE5CC;" d="M432.657,311.235c0,8.885-6.264,19.719-14.026,24.171c-3.92,2.265-7.466,2.462-10.007,0.946
				c-0.059-0.02-0.099-0.04-0.158-0.079c-4.629-2.758-9.968-4.294-15.228-5.181c-7.348-1.221-14.853-1.202-22.3-1.753
				c-3.191-0.236-6.422-0.591-9.416-1.753c-3.408-1.3-6.343-3.566-9.101-5.969c-2.384-2.068-4.688-4.275-6.974-6.461
				c-6.816-6.54-13.632-13.08-20.468-19.601c-0.768-0.768-1.655-1.556-2.246-2.462c-0.571-0.867-0.236-2.147,0.216-2.994
				c0.493-0.906,1.261-1.635,2.049-2.285c0.039-0.019,0.079-0.059,0.118-0.098c0.098-0.118,0.177-0.256,0.138-0.394
				c-0.04-0.059-0.099-0.118-0.158-0.158c-0.039-0.039-0.079-0.059-0.118-0.099c0,0,0-0.02-0.02-0.02
				c-1.595-1.3-3.171-2.581-4.767-3.861c-0.985-0.788-2.029-1.674-2.305-2.915c-0.256-1.123,0.236-2.344,1.084-3.132
				c0.414-0.374,0.906-0.67,1.438-0.847c0.216-0.079,0.414-0.098,0.611-0.098c0.374,0,0.729,0.059,1.103-0.039
				c-0.788-0.571-1.576-1.143-2.364-1.694c0-0.039-0.02-0.039-0.039-0.02c-0.729-0.552-1.458-1.064-2.186-1.596
				c-0.827-0.611-1.556-1.458-1.635-2.522c-0.118-1.556,0.965-3.093,2.325-3.743c1.852-0.906,4.353-0.118,6.087,0.965
				c0.197,0.118,0.374,0.256,0.552,0.374c-0.177-0.138-0.335-0.611-0.473-0.808c-0.197-0.315-0.433-0.611-0.65-0.906
				c-0.118-0.158-0.236-0.295-0.355-0.453c-0.355-0.434-0.689-0.887-0.985-1.359c-0.729-1.221-1.3-2.719-0.453-4.038
				c0.65-1.005,1.911-1.458,3.093-1.478c1.379-0.039,2.699,0.355,3.999,0.788c4.649,1.517,9.199,3.29,13.632,5.299
				c2.049,0.926,4.058,1.871,5.929,3.093c1.95,1.28,3.644,2.817,5.437,4.275c5.792,4.689,13.061,7.505,20.487,7.919
				c3.585,0.197,7.21-0.138,10.736,0.492c3.605,0.65,6.954,2.265,10.244,3.9c5.397,2.719,21.571,11.524,32.051,17.119
				c0.512,0.276,1.024,0.532,1.497,0.788C431.298,304.103,432.657,307.098,432.657,311.235z"/>
			<path style="fill:#FFB78C;" d="M432.657,311.235c0,8.885-6.264,19.719-14.026,24.171c-3.92,2.265-7.466,2.462-10.007,0.946
				c-0.059-0.02-0.099-0.04-0.158-0.079c-2.384-1.497-3.841-4.551-3.841-8.845c0-8.885,6.264-19.719,14.006-24.191
				c3.388-1.95,6.501-2.364,8.924-1.477c0.532,0.197,1.024,0.453,1.497,0.788C431.298,304.103,432.657,307.098,432.657,311.235z"/>
			<path style="fill:#FFB78C;" d="M322.467,260.404c-0.477,0.603-0.662,1.392-0.694,2.16c-0.012,0.288-0.003,0.581,0.082,0.856
				c0.096,0.307,0.282,0.578,0.479,0.832c0.99,1.281,2.288,2.288,3.616,3.214c0.937-1.296,1.079-2.985,1.189-4.581
				c0.007-0.109,0.015-0.222-0.018-0.327c-0.031-0.097-0.093-0.181-0.155-0.262c-0.49-0.645-0.98-1.29-1.47-1.935
				c-0.405-0.534-0.675-0.868-1.355-0.799C323.472,259.63,322.896,259.862,322.467,260.404z"/>
			<path style="fill:#FFB78C;" d="M316.051,269.664c-0.139,0.57-0.094,1.17-0.009,1.751c0.048,0.33,0.116,0.673,0.327,0.931
				c0.146,0.178,0.348,0.299,0.548,0.412c1.456,0.826,3.026,1.451,4.652,1.851c0.418-1.218,0.462-2.528,0.502-3.815
				c0.006-0.175,0.01-0.355-0.056-0.517c-0.047-0.117-0.128-0.216-0.211-0.311c-0.837-0.964-1.975-1.66-3.211-1.977
				c-0.638-0.164-0.99-0.283-1.541,0.147C316.564,268.517,316.199,269.061,316.051,269.664z"/>
			<path style="fill:#FFB78C;" d="M318.251,279.875c-0.147,0.486-0.281,1.017-0.102,1.492c0.114,0.303,0.344,0.546,0.573,0.775
				c1.34,1.344,2.868,2.53,4.609,3.284c0.108-0.823,0.213-1.653,0.158-2.481c-0.055-0.829-0.279-1.665-0.771-2.333
				c-0.609-0.828-1.552-1.303-2.495-1.648c-0.312-0.114-0.929-0.456-1.261-0.338C318.555,278.77,318.359,279.517,318.251,279.875z"
				/>
			<path style="fill:#FFB78C;" d="M323.592,293.279c1.065,0.725,2.13,1.451,3.196,2.177c0.053,0.036,0.117,0.073,0.176,0.048
				c0.065-0.027,0.079-0.112,0.084-0.183c0.053-0.83,0.102-1.696-0.22-2.463c-0.269-0.643-0.77-1.147-1.277-1.609
				c-0.478-0.435-1.016-1.007-1.656-1.186c-1.082-0.302-1.978,0.729-1.647,1.778C322.449,292.484,323.062,292.918,323.592,293.279z"
				/>
			<path style="fill:#FFB78C;" d="M355.882,318.484c-3.585-1.517-6.402-4.373-9.121-7.17c-4.275-4.354-8.53-8.727-12.785-13.1
				c-1.596-1.635-3.211-3.27-4.59-5.102c-1.458-1.911-2.64-3.802-4.275-5.397c0.099-0.118,0.177-0.256,0.138-0.394
				c-0.039-0.059-0.098-0.118-0.157-0.158c-0.04-0.039-0.079-0.059-0.118-0.099c2.049,1.202,3.703,3.093,5.24,4.846
				c3.861,4.472,7.584,9.062,11.8,13.179C346.604,309.6,351.765,313.559,355.882,318.484z"/>
			<path style="fill:#FFB78C;" d="M353.341,306.467c-4.058-2.975-7.446-6.718-10.815-10.441c-2.856-3.172-5.693-6.324-8.55-9.475
				c-1.221-1.359-2.443-2.718-3.822-3.92c-1.28-1.123-2.679-2.088-4.078-3.053c-1.556-1.064-3.093-2.265-4.728-3.191
				c-0.118-0.059-0.236-0.118-0.335-0.197c0.374,0,0.729,0.059,1.103-0.039c-0.788-0.571-1.576-1.143-2.364-1.694
				c3.763,1.753,7.309,4.59,10.283,7.427c1.556,1.477,3.014,3.053,4.472,4.649C340.714,293.229,346.998,299.888,353.341,306.467z"/>
			<path style="fill:#FFB78C;" d="M355.015,292.461c-2.265-1.162-4.097-2.975-5.949-4.708c-5.811-5.516-12.036-10.618-18.576-15.267
				c-2.029-1.438-4.196-2.857-5.949-4.649c-0.079-0.099-0.177-0.197-0.236-0.295c0.197,0.118,0.374,0.256,0.552,0.374
				c-0.177-0.138-0.335-0.611-0.473-0.808c-0.197-0.315-0.433-0.611-0.65-0.906c-0.118-0.158-0.236-0.295-0.355-0.453
				c0.591,0.394,1.182,0.788,1.753,1.202c5.457,3.822,10.441,8.215,15.405,12.627c1.812,1.615,3.625,3.231,5.417,4.826
				C348.987,287.103,352.001,289.782,355.015,292.461z"/>
			<path style="fill:#FFB78C;" d="M364.547,293.762c0.556,0.058,1.117,0.06,1.673,0.006c0.28-0.027,0.573-0.074,0.796-0.245
				c0.19-0.145,0.308-0.365,0.389-0.59c0.27-0.745,0.18-1.587-0.127-2.318c-0.805-1.915-3.764-4.651-5.555-2.252
				C360.099,290.542,362.172,293.513,364.547,293.762z"/>
			<path style="fill:#FFB78C;" d="M360.389,309.672c0.335,0.03,0.681,0.034,0.999-0.076c0.717-0.247,1.142-1.064,1.068-1.818
				c-0.234-2.396-4.446-3.625-6.111-2.021C354.187,307.836,358.874,309.536,360.389,309.672z"/>
			<path style="fill:#FFB78C;" d="M360.467,319.81c1.089-0.487-1.057-5.887-3.543-3.849c-0.648,0.531-1.124,1.416-0.659,2.201
				C356.765,319.002,359.53,320.229,360.467,319.81z"/>
			<path style="fill:#FFB78C;" d="M360.115,324.916c0.073-0.081,0.095-0.195,0.099-0.304c0.05-1.26-2.944-3.467-3.458-1.667
				c-0.149,0.523,0.118,1.292,0.515,1.642C357.699,324.964,359.699,325.38,360.115,324.916z"/>
		</g>
	</g>
	<g>
		<g style="enable-background:new    ;">
			<path style="fill:#4D4D4D;" d="M416.177,87.412c-5.692-3.286-10.855-3.592-14.584-1.424l-5.887,3.421
				c3.729-2.167,8.892-1.862,14.584,1.424c11.324,6.538,20.467,22.374,20.43,35.386c-0.018,6.451-2.297,10.993-5.973,13.129
				l5.887-3.421c3.676-2.136,5.955-6.677,5.973-13.129C436.644,109.786,427.501,93.95,416.177,87.412z"/>
			<g>
				<path d="M410.29,90.833c11.324,6.538,20.467,22.374,20.43,35.386c-0.037,12.992-9.24,18.236-20.564,11.698
					c-11.306-6.528-20.467-22.374-20.43-35.366C389.763,89.539,398.983,84.305,410.29,90.833z"/>
			</g>
			<path style="fill:#FFFFFF;" d="M410.837,100.348c-7.12-4.11-12.885-0.824-12.885,7.346c0,8.163,5.765,18.114,12.885,22.224
				c7.114,4.107,12.885,0.816,12.885-7.346C423.722,114.403,417.951,104.455,410.837,100.348z M407.691,120.132v-13.293
				l10.032,12.442L407.691,120.132z"/>
		</g>
		<g style="enable-background:new    ;">
			<path style="fill:#FFD166;" d="M425.982,156.282l-19.252-11.115c-3.026-1.747-5.767-1.908-7.746-0.758l-5.887,3.421
				c1.979-1.15,4.72-0.989,7.746,0.758l19.252,11.115c5.991,3.459,10.846,11.868,10.826,18.752l-0.063,22.143
				c-0.01,3.42-1.22,5.828-3.171,6.961l5.887-3.421c1.951-1.134,3.162-3.542,3.171-6.962l0.063-22.143
				C436.828,168.15,431.973,159.741,425.982,156.282z"/>
			<g>
				<path style="fill:#FFAD66;" d="M420.095,159.703c5.991,3.459,10.846,11.868,10.826,18.752l-0.063,22.143
					c-0.02,6.884-4.906,9.669-10.897,6.21l-19.253-11.116c-6.009-3.469-10.864-11.878-10.844-18.762l0.063-22.143
					c0.02-6.884,4.906-9.669,10.915-6.2L420.095,159.703z"/>
			</g>
			<path style="fill:#FFFFFF;" d="M410.837,163.255c-7.12-4.11-12.885-0.824-12.885,7.346c0,8.163,5.765,18.114,12.885,22.224
				c7.114,4.107,12.885,0.816,12.885-7.346C423.722,177.309,417.951,167.361,410.837,163.255z M407.691,183.038v-13.293
				l10.032,12.442L407.691,183.038z"/>
		</g>
		<g style="enable-background:new    ;">
			<path style="fill:#8482FF;" d="M434.544,229.195l-36.052-20.814c-0.682-0.394-1.306-0.431-1.758-0.169l-5.887,3.421
				c0.451-0.262,1.075-0.225,1.758,0.169l36.052,20.814c1.369,0.79,2.467,2.693,2.463,4.266l-0.117,41.426
				c-0.002,0.769-0.275,1.311-0.715,1.567l5.887-3.421c0.44-0.256,0.712-0.799,0.715-1.567l0.117-41.426
				C437.011,231.889,435.912,229.986,434.544,229.195z"/>
			<g>
				<path style="fill:#4D4BB7;" d="M428.656,232.617c1.369,0.79,2.468,2.693,2.463,4.266l-0.117,41.426
					c-0.004,1.552-1.11,2.182-2.479,1.392l-36.052-20.814c-1.351-0.78-2.467-2.693-2.463-4.246l0.117-41.426
					c0.004-1.573,1.128-2.193,2.479-1.413L428.656,232.617z"/>
			</g>
			<path style="fill:#FFFFFF;" d="M410.837,230.902c-7.12-4.111-12.885-0.824-12.885,7.346c0,8.163,5.765,18.114,12.885,22.224
				c7.114,4.107,12.885,0.816,12.885-7.346C423.722,244.956,417.951,235.009,410.837,230.902z M407.691,250.686v-13.293
				l10.032,12.442L407.691,250.686z"/>
		</g>
	</g>
	<g>
		<g>
			<polygon style="fill-rule:evenodd;clip-rule:evenodd;fill:#231F20;" points="424.555,283.11 424.555,280.377 420.757,278.184 
				420.757,280.917 			"/>
			<polygon style="fill-rule:evenodd;clip-rule:evenodd;fill:#231F20;" points="431.369,287.044 431.369,284.311 427.57,282.118 
				427.57,284.851 			"/>
			<path style="fill-rule:evenodd;clip-rule:evenodd;fill:#231F20;" d="M438.555,291.15l-1.153-3.356l-3.308-1.91l0.412,2.97
				C435.861,289.637,437.224,290.432,438.555,291.15z"/>
		</g>
		<g>
			<polygon style="fill-rule:evenodd;clip-rule:evenodd;fill:#231F20;" points="404.09,271.294 404.09,268.561 400.291,266.368 
				400.291,269.101 			"/>
			<polygon style="fill-rule:evenodd;clip-rule:evenodd;fill:#231F20;" points="410.903,275.228 410.903,272.495 407.104,270.302 
				407.104,273.035 			"/>
			<polygon style="fill-rule:evenodd;clip-rule:evenodd;fill:#231F20;" points="417.694,279.149 417.694,276.416 413.895,274.223 
				413.895,276.955 			"/>
		</g>
		<g>
			<path style="fill-rule:evenodd;clip-rule:evenodd;fill:#231F20;" d="M385.268,255.062l2.275-0.354l-0.009-3.8l-2.381-0.502
				C385.16,251.965,385.191,253.516,385.268,255.062z"/>
			<path style="fill-rule:evenodd;clip-rule:evenodd;fill:#231F20;" d="M389.971,263.026l1.431-1.792
				c-1.105-0.647-2.19-1.857-2.91-3.233l-2.005,1.046C387.365,260.713,388.659,262.192,389.971,263.026z"/>
			<polygon style="fill-rule:evenodd;clip-rule:evenodd;fill:#231F20;" points="397.181,267.305 397.315,264.65 394.008,262.74 
				393.115,264.952 			"/>
		</g>
		<g>
			<polygon style="fill-rule:evenodd;clip-rule:evenodd;fill:#231F20;" points="385.153,230.971 387.534,232.346 387.534,227.987 
				385.153,226.612 			"/>
			<polygon style="fill-rule:evenodd;clip-rule:evenodd;fill:#231F20;" points="385.153,238.79 387.534,240.165 387.534,235.805 
				385.153,234.43 			"/>
			<polygon style="fill-rule:evenodd;clip-rule:evenodd;fill:#231F20;" points="385.153,246.642 387.534,247.847 387.534,243.598 
				385.153,242.223 			"/>
		</g>
		<g>
			<polygon style="fill-rule:evenodd;clip-rule:evenodd;fill:#231F20;" points="385.153,207.487 387.534,208.862 387.534,204.907 
				385.153,202.906 			"/>
			<polygon style="fill-rule:evenodd;clip-rule:evenodd;fill:#231F20;" points="385.153,215.305 387.534,216.68 387.534,212.321 
				385.153,210.946 			"/>
			<polygon style="fill-rule:evenodd;clip-rule:evenodd;fill:#231F20;" points="385.153,223.098 387.534,224.473 387.534,220.113 
				385.153,218.739 			"/>
		</g>
		<g>
			<polygon style="fill-rule:evenodd;clip-rule:evenodd;fill:#231F20;" points="395.24,197.452 395.737,200.471 399.215,202.479 
				399.215,199.747 			"/>
			<path style="fill-rule:evenodd;clip-rule:evenodd;fill:#231F20;" d="M388.126,194.003l1.727,3.465
				c1.018,0.019,2.171,0.903,3.259,1.488l-1.088-3.331C390.7,194.949,389.345,193.996,388.126,194.003z"/>
			<path style="fill-rule:evenodd;clip-rule:evenodd;fill:#231F20;" d="M385.188,199.184l2.346,2.663
				c0.005-0.629-0.012-1.273,0.012-1.89c0.033-0.612,0.184-1.147,0.44-1.559l-2.122-3.258c-0.321,0.485-0.521,1.112-0.588,1.823
				C385.22,197.68,385.212,198.431,385.188,199.184z"/>
		</g>
		<g>
			<polygon style="fill-rule:evenodd;clip-rule:evenodd;fill:#231F20;" points="415.882,209.369 415.882,212.102 419.68,214.295 
				419.68,211.562 			"/>
			<polygon style="fill-rule:evenodd;clip-rule:evenodd;fill:#231F20;" points="409.068,205.436 409.068,208.168 412.867,210.361 
				412.867,207.629 			"/>
			<polygon style="fill-rule:evenodd;clip-rule:evenodd;fill:#231F20;" points="402.277,201.515 402.277,204.248 406.076,206.441 
				406.076,203.708 			"/>
		</g>
		<g>
			<path style="fill-rule:evenodd;clip-rule:evenodd;fill:#231F20;" d="M436.633,221.352l-0.808,2.264
				c1.102,0.646,2.206,1.251,3.307,1.931l1.493-1.734C439.318,222.942,437.987,222.153,436.633,221.352z"/>
			<polygon style="fill-rule:evenodd;clip-rule:evenodd;fill:#231F20;" points="429.534,217.251 429.534,219.984 433.2,222.1 
				433.405,219.487 			"/>
			<polygon style="fill-rule:evenodd;clip-rule:evenodd;fill:#231F20;" points="422.743,213.331 422.743,216.063 426.542,218.257 
				426.542,215.524 			"/>
		</g>
		<g>
			<polygon style="fill-rule:evenodd;clip-rule:evenodd;fill:#231F20;" points="445.051,243.858 442.67,242.483 442.67,246.842 
				445.051,248.217 			"/>
			<polygon style="fill-rule:evenodd;clip-rule:evenodd;fill:#231F20;" points="445.048,235.699 442.67,235.285 442.67,239.081 
				445.051,240.367 			"/>
			<path style="fill-rule:evenodd;clip-rule:evenodd;fill:#231F20;" d="M443.461,227.059l-1.96,1.127
				c0.797,1.345,1.211,2.868,1.169,4.109l2.295-0.262C444.956,230.526,444.425,228.691,443.461,227.059z"/>
		</g>
		<g>
			<polygon style="fill-rule:evenodd;clip-rule:evenodd;fill:#231F20;" points="445.051,267.342 442.67,265.967 442.67,270.326 
				445.051,271.701 			"/>
			<polygon style="fill-rule:evenodd;clip-rule:evenodd;fill:#231F20;" points="445.051,259.524 442.67,258.149 442.67,262.508 
				445.051,263.883 			"/>
			<polygon style="fill-rule:evenodd;clip-rule:evenodd;fill:#231F20;" points="445.051,251.731 442.67,250.356 442.67,254.716 
				445.051,256.09 			"/>
		</g>
		<g>
			<path style="fill-rule:evenodd;clip-rule:evenodd;fill:#231F20;" d="M444.539,291.085l-2.164-3.206
				c-0.415,0.936-1.29,1.372-2.331,1.186l1.667,3.469C442.954,292.713,444.01,292.185,444.539,291.085z"/>
			<path style="fill-rule:evenodd;clip-rule:evenodd;fill:#231F20;" d="M445.051,283.199l-2.382-1.914v3.796l2.335,2.731
				C445.053,286.317,445.053,284.756,445.051,283.199z"/>
			<polygon style="fill-rule:evenodd;clip-rule:evenodd;fill:#231F20;" points="445.051,275.216 442.67,273.841 442.67,278.2 
				445.051,279.575 			"/>
		</g>
	</g>
	<g>
		<g style="enable-background:new    ;">
			<g>
				<path style="fill:#FFD166;" d="M110.206,197.562l3.788,2.201c-4.19,2.266-6.968,2.351-8.794,1.29l-3.788-2.202
					C103.239,199.913,106.016,199.828,110.206,197.562z"/>
				<path style="fill:#FFD166;" d="M93.276,205.346l-3.788-2.201c-2.399-1.394-4.782-3.751-7.009-7.446l3.788,2.201
					C88.494,201.595,90.877,203.952,93.276,205.346z"/>
				<path style="fill:#FFD166;" d="M70.328,159.188l37.68-21.754c1.597-0.922,3.04-1.01,4.081-0.405l3.788,2.202
					c-1.041-0.605-2.484-0.517-4.081,0.405l-37.68,21.754c-3.157,1.823-5.723,6.247-5.712,9.894l0.086,30.304
					c0.005,1.798,0.642,3.061,1.666,3.656l-3.788-2.202c-1.025-0.595-1.661-1.859-1.666-3.656l-0.086-30.304
					C64.606,165.434,67.171,161.01,70.328,159.188z"/>
			</g>
			<g>
				<path style="fill:#FFAD66;" d="M74.116,161.389c-3.157,1.823-5.722,6.246-5.712,9.894l0.086,30.304
					c0.01,3.628,2.592,5.08,5.749,3.257l12.028-6.944c7.161,11.883,15.934,9.927,21.669,6.616c3.642-2.102,5.937-4.619,6.058-4.751
					c-12.956,7.006-12.411-6.836-11.976-10.959l9.9-5.716c3.174-1.833,5.723-6.247,5.713-9.874l-0.086-30.304
					c-0.01-3.648-2.575-5.109-5.75-3.277L74.116,161.389z"/>
			</g>
			<g>
				<path style="fill:#FFFFFF;" d="M74.897,185.277c-0.048-0.41-0.074-0.842-0.075-1.297c-0.001-0.447,0.022-0.909,0.067-1.372
					l-1.642,0.337c-0.244,0.049-0.378-0.173-0.301-0.498l0.871-3.613c0.061-0.261,0.242-0.508,0.436-0.62
					c0.048-0.027,0.096-0.047,0.144-0.056l1.638-0.335c0.381-1.002,0.839-1.991,1.365-2.949l-1.021-1.014
					c-0.152-0.154-0.104-0.512,0.1-0.804l2.295-3.244c0.081-0.117,0.177-0.206,0.272-0.26c0.142-0.082,0.283-0.088,0.374,0.005
					l1.014,1.017c0.697-0.772,1.434-1.478,2.209-2.1l-0.006-1.98c-0.001-0.295,0.205-0.652,0.462-0.8l2.838-1.638
					c0.256-0.148,0.464-0.03,0.465,0.265l0.006,1.98c0.776-0.274,1.514-0.419,2.21-0.452l1.008-2.185
					c0.09-0.197,0.23-0.354,0.371-0.435c0.095-0.055,0.19-0.076,0.273-0.054l2.303,0.59c0.208,0.054,0.258,0.356,0.107,0.685
					l-1.011,2.187c0.53,0.348,0.992,0.806,1.374,1.368l1.635-1.555c0.048-0.046,0.097-0.083,0.145-0.111
					c0.195-0.113,0.377-0.075,0.439,0.115l0.889,2.597c0.078,0.236-0.054,0.611-0.298,0.844l-1.638,1.557
					c0.044,0.411,0.074,0.843,0.075,1.29c0.001,0.454-0.025,0.917-0.067,1.379l1.642-0.336c0.244-0.049,0.378,0.173,0.301,0.498
					l-0.871,3.613c-0.062,0.258-0.243,0.508-0.439,0.621c-0.048,0.027-0.096,0.047-0.144,0.056l-1.638,0.335
					c-0.378,1-0.836,1.986-1.362,2.947l1.021,1.014c0.152,0.154,0.104,0.512-0.103,0.806l-2.292,3.243
					c-0.082,0.117-0.177,0.205-0.271,0.259c-0.143,0.082-0.283,0.087-0.375-0.003l-1.017-1.019c-0.694,0.774-1.431,1.48-2.206,2.101
					l0.006,1.977c0.001,0.298-0.205,0.652-0.462,0.8l-2.838,1.639c-0.256,0.148-0.464,0.033-0.465-0.265l-0.006-1.976
					c-0.776,0.274-1.514,0.419-2.213,0.45l-1.005,2.187c-0.091,0.196-0.232,0.354-0.375,0.436c-0.094,0.055-0.189,0.076-0.27,0.054
					l-2.306-0.588c-0.204-0.056-0.255-0.358-0.104-0.686l1.011-2.187c-0.53-0.352-0.992-0.806-1.377-1.366l-1.635,1.555
					c-0.047,0.045-0.095,0.081-0.142,0.109c-0.194,0.112-0.377,0.073-0.439-0.114l-0.889-2.597c-0.078-0.236,0.054-0.61,0.298-0.844
					L74.897,185.277z M84.578,186.199c3.767-2.175,6.812-7.448,6.799-11.777c-0.012-4.326-3.076-6.068-6.844-3.893
					c-3.764,2.173-6.809,7.442-6.796,11.768C77.75,186.626,80.814,188.372,84.578,186.199L84.578,186.199z"/>
			</g>
			<g>
				<path style="fill:#FFFFFF;" d="M98.086,169.869c0.106-0.701,0.278-1.408,0.508-2.113l-1-0.258
					c-0.149-0.039-0.183-0.257-0.076-0.489l1.19-2.578c0.065-0.141,0.166-0.254,0.269-0.313c0.067-0.039,0.135-0.055,0.194-0.039
					l1,0.258c0.406-0.668,0.856-1.308,1.34-1.9l-0.384-1.126c-0.056-0.17,0.039-0.438,0.212-0.605l1.931-1.836
					c0.035-0.034,0.07-0.06,0.104-0.08c0.139-0.08,0.269-0.052,0.313,0.084l0.384,1.129c0.275-0.194,0.549-0.378,0.83-0.54
					c0.284-0.164,0.559-0.298,0.834-0.421l0.376-1.568c0.044-0.188,0.173-0.365,0.312-0.445c0.035-0.02,0.07-0.034,0.104-0.04
					l1.935-0.396c0.173-0.032,0.27,0.125,0.214,0.359l-0.376,1.564c0.486,0.032,0.938,0.152,1.346,0.349l0.995-1.41
					c0.058-0.083,0.126-0.146,0.194-0.185c0.103-0.059,0.204-0.063,0.27,0.002l1.2,1.198c0.109,0.108,0.075,0.365-0.072,0.575
					l-0.995,1.41c0.233,0.438,0.408,0.945,0.518,1.521l1.232-0.711c0.185-0.107,0.334-0.026,0.335,0.187l0.007,2.335
					c0,0.209-0.147,0.465-0.333,0.572l-1.232,0.711c-0.106,0.701-0.277,1.408-0.507,2.113l1,0.258
					c0.148,0.039,0.183,0.257,0.076,0.486l-1.19,2.581c-0.065,0.141-0.166,0.254-0.269,0.313c-0.067,0.039-0.135,0.055-0.194,0.039
					l-1-0.258c-0.407,0.668-0.856,1.308-1.34,1.9l0.384,1.126c0.056,0.17-0.039,0.438-0.212,0.602l-1.931,1.84
					c-0.033,0.032-0.067,0.057-0.101,0.076c-0.14,0.081-0.272,0.054-0.317-0.08l-0.384-1.129c-0.275,0.194-0.55,0.374-0.834,0.538
					c-0.281,0.162-0.556,0.3-0.831,0.423l-0.376,1.568c-0.045,0.186-0.176,0.365-0.315,0.445c-0.034,0.019-0.067,0.033-0.101,0.04
					l-1.935,0.392c-0.173,0.036-0.27-0.122-0.214-0.356l0.376-1.564c-0.486-0.032-0.938-0.152-1.347-0.349l-0.995,1.41
					c-0.058,0.083-0.126,0.146-0.194,0.185c-0.103,0.059-0.204,0.063-0.27-0.002l-1.2-1.201c-0.109-0.104-0.075-0.362,0.073-0.572
					l0.995-1.41c-0.233-0.438-0.408-0.944-0.518-1.521l-1.232,0.711c-0.185,0.107-0.334,0.022-0.335-0.187l-0.007-2.335
					c-0.001-0.213,0.147-0.465,0.332-0.572L98.086,169.869z M104.94,173.08c2.696-1.556,4.875-5.331,4.866-8.429
					c-0.009-3.098-2.202-4.348-4.898-2.791c-2.693,1.555-4.872,5.329-4.863,8.427C100.054,173.385,102.248,174.635,104.94,173.08
					L104.94,173.08z"/>
			</g>
		</g>
	</g>
	<g>
		<path style="fill:#F2F2F2;" d="M82.834,319.439l-41.262-23.823c-0.792-0.457-0.693-1.256,0.222-1.784l40.543-23.408
			c0.915-0.528,2.298-0.585,3.09-0.128l41.262,23.823c0.792,0.457,0.692,1.256-0.222,1.784l-40.543,23.408
			C85.009,319.839,83.625,319.896,82.834,319.439z"/>
		<g>
			<polygon style="fill:#F2F2F2;" points="84.376,296.643 44.936,273.873 84.13,251.244 123.569,274.015 			"/>
			<polygon style="fill:#E6E6E6;" points="84.362,294.159 49.239,273.88 84.143,253.729 119.266,274.007 			"/>
			<polygon style="fill:#BFBFBF;" points="84.376,316.654 84.376,296.643 123.569,274.015 123.569,294.025 			"/>
			<polygon style="fill:#E6E6E6;" points="44.936,273.873 44.936,293.883 84.376,316.654 84.376,296.643 			"/>
		</g>
		<g>
			<g>
				<g style="enable-background:new    ;">
					<g>
						<polygon style="fill:#4D4D4D;" points="57.799,278.823 55.023,277.228 54.55,270.807 53.565,257.101 56.322,258.44 
							57.11,269.33 						"/>
					</g>
					<g>
						<polygon style="fill:#737373;" points="56.321,258.438 53.556,257.1 87.957,237.238 90.722,238.577 						"/>
					</g>
					<g>
						<polygon style="fill:#1F2125;" points="93.701,279.63 78.793,288.236 76.449,289.595 76.252,289.713 76.232,289.457 
							74.755,288.611 71.979,287.015 70.521,286.168 67.745,284.573 66.268,283.726 63.491,282.112 62.053,281.284 59.257,279.669 
							57.799,278.823 57.11,269.33 56.322,258.44 90.727,238.569 90.865,240.539 91.081,243.335 91.219,245.305 91.219,245.324 
							91.416,248.121 91.554,250.09 91.771,252.906 91.908,254.856 92.105,257.672 92.165,258.361 92.243,259.641 92.46,262.457 
													"/>
					</g>
				</g>
			</g>
			<g>
				<g style="enable-background:new    ;">
					<g>
						<polygon style="fill:#4D4D4D;" points="62.053,281.284 59.257,279.669 58.449,268.562 57.799,259.622 60.576,260.961 
							61.009,267.085 						"/>
					</g>
					<g>
						<polygon style="fill:#737373;" points="60.568,260.961 57.802,259.623 92.204,239.762 94.969,241.1 						"/>
					</g>
					<g>
						<polygon style="fill:#1F2125;" points="97.954,282.151 80.762,292.076 79.009,291.072 76.449,289.595 76.252,289.713 
							76.232,289.457 74.755,288.611 71.979,287.015 70.521,286.168 67.745,284.573 66.268,283.726 63.491,282.112 62.053,281.284 
							61.009,267.085 60.576,260.961 91.081,243.335 94.961,241.09 95.099,243.079 95.315,245.876 95.453,247.825 95.65,250.661 
							95.808,252.611 96.005,255.427 96.142,257.376 96.142,257.396 96.359,260.193 96.359,260.212 96.399,260.803 						"/>
					</g>
				</g>
			</g>
			<g>
				<g style="enable-background:new    ;">
					<g>
						<polygon style="fill:#4D4D4D;" points="66.268,283.726 63.491,282.112 62.349,266.317 62.053,262.142 64.81,263.482 
							64.909,264.84 						"/>
					</g>
					<g>
						<polygon style="fill:#737373;" points="64.814,263.484 62.048,262.146 96.45,242.285 99.215,243.623 						"/>
					</g>
					<g>
						<polygon style="fill:#1F2125;" points="102.13,283.904 84.366,294.164 80.762,292.076 79.009,291.072 76.449,289.595 
							76.252,289.713 76.232,289.457 74.755,288.611 71.979,287.015 70.521,286.168 67.745,284.573 66.268,283.726 64.909,264.84 
							64.81,263.482 91.416,248.121 99.215,243.63 99.353,245.58 99.569,248.396 99.707,250.346 99.707,250.366 99.904,253.162 
							100.042,255.132 100.259,257.948 100.633,263.245 						"/>
					</g>
				</g>
			</g>
			<g>
				<g style="enable-background:new    ;">
					<g>
						<polygon style="fill:#4D4D4D;" points="70.521,286.168 67.745,284.573 66.287,264.663 69.064,266.002 						"/>
					</g>
					<g>
						<polygon style="fill:#737373;" points="69.06,266.008 66.295,264.669 100.696,244.808 103.462,246.146 						"/>
					</g>
					<g>
						<polygon style="fill:#1F2125;" points="106.048,281.639 102.13,283.904 84.366,294.164 80.762,292.076 79.009,291.072 
							76.449,289.595 76.252,289.713 76.232,289.457 74.755,288.611 71.979,287.015 70.521,286.168 69.064,266.002 87.241,255.525 
							91.771,252.906 95.65,250.661 99.569,248.396 103.468,246.151 103.606,248.101 103.823,250.917 103.961,252.867 
							104.158,255.703 104.886,265.707 						"/>
					</g>
				</g>
			</g>
			<g>
				<g style="enable-background:new    ;">
					<g>
						<polygon style="fill:#4D4D4D;" points="74.755,288.611 71.979,287.015 70.541,267.184 73.298,268.523 						"/>
					</g>
					<g>
						<polygon style="fill:#737373;" points="73.307,268.531 70.541,267.193 104.943,247.331 107.708,248.669 						"/>
					</g>
					<g>
						<polygon style="fill:#1F2125;" points="109.948,279.394 106.048,281.639 102.13,283.904 84.366,294.164 80.762,292.076 
							79.009,291.072 76.449,289.595 76.252,289.713 76.232,289.457 74.755,288.611 73.298,268.523 91.534,258.007 92.105,257.672 
							96.005,255.427 99.904,253.162 103.823,250.917 107.703,248.672 107.84,250.622 108.057,253.438 108.057,253.458 
							109.12,268.149 						"/>
					</g>
				</g>
			</g>
			<g>
				<g style="enable-background:new    ;">
					<g>
						<polygon style="fill:#4D4D4D;" points="79.009,291.072 76.449,289.595 76.252,289.713 76.232,289.457 74.795,269.724 
							77.552,271.064 78.793,288.236 						"/>
					</g>
					<g>
						<polygon style="fill:#737373;" points="77.553,271.054 74.788,269.716 109.189,249.855 111.955,251.193 						"/>
					</g>
					<g>
						<polygon style="fill:#1F2125;" points="113.827,277.129 109.948,279.394 106.048,281.639 102.13,283.904 84.366,294.164 
							80.762,292.076 79.009,291.072 78.793,288.236 77.552,271.064 92.46,262.457 95.867,260.488 96.359,260.212 99.825,258.204 
							100.259,257.948 104.158,255.703 108.057,253.458 111.956,251.193 113.355,270.591 						"/>
					</g>
					<g>
						<path style="fill:#F2F2F2;" d="M87.254,283.48l4.973,0.471v2.213l-8.357-0.73l8.357-10.358v2.214L87.254,283.48z"/>
						<path style="fill:#F2F2F2;" d="M95.99,287.017l-1.607,0.927c1.588-5.835,2.773-10.207,3.555-13.118l1.777-6.559l1.608-0.928
							L95.99,287.017z"/>
						<path style="fill:#F2F2F2;" d="M108.092,271.449l-4.992-0.46v-2.191l8.376,0.697l-8.376,10.391v-2.235L108.092,271.449z"/>
					</g>
				</g>
			</g>
		</g>
	</g>
	<g>
		<path style="fill:#F2F2F2;" d="M280.869,459.16c-9.562,5.521-25.114,5.492-34.736-0.063c-9.622-5.555-9.671-14.534-0.109-20.055
			c9.562-5.521,25.113-5.492,34.735,0.063C290.382,444.661,290.431,453.64,280.869,459.16z"/>
		
			<ellipse transform="matrix(0.0054 -1 1 0.0054 -185.5123 708.5548)" style="fill:#C4C4C4;" cx="263.446" cy="447.538" rx="12.086" ry="20.934"/>
		<path style="fill:#D9D9D9;" d="M283.673,408.092h-40.441v37.896c-0.111,3.081,1.873,6.189,5.958,8.548
			c7.923,4.574,20.729,4.598,28.602,0.052c4.083-2.357,6.032-5.48,5.863-8.579L283.673,408.092z"/>
		<g>
			
				<ellipse transform="matrix(0.0054 -1 1 0.0054 -146.7424 669.9946)" style="fill:#F2F2F2;" cx="263.446" cy="408.767" rx="12.086" ry="20.934"/>
			<path style="fill:#FFD166;" d="M267.832,420.6c0,0-0.003,0.003-0.006,0c-6.68,0.799-13.926-0.307-19.136-3.313
				c-0.927-0.535-1.752-1.109-2.471-1.712l3.555-1.974l17.299,4.426L267.832,420.6z"/>
			<path style="fill:#999999;" d="M279.939,412.467c-0.851,1.286-2.175,2.493-3.971,3.529c-6.873,3.968-18.049,3.95-24.967-0.044
				c-1.834-1.057-3.182-2.287-4.047-3.6c-2.402-3.638-1.08-7.897,3.971-10.814c6.873-3.968,18.049-3.95,24.967,0.044
				C281.001,404.534,282.355,408.826,279.939,412.467z"/>
			<path style="fill:#FFAD66;" d="M279.939,412.467c-0.851,1.286-2.175,2.493-3.971,3.529c-6.873,3.968-18.049,3.95-24.967-0.044
				c-1.834-1.057-3.182-2.287-4.047-3.6c0.851-1.286,2.175-2.493,3.971-3.529c6.873-3.968,18.049-3.95,24.967,0.044
				C277.725,409.924,279.073,411.154,279.939,412.467z"/>
			<path style="fill:#D9D9D9;" d="M250.924,403.401c6.873-3.968,18.051-3.948,24.967,0.045c3.064,1.769,4.774,4.021,5.135,6.325
				c0.467-2.922-1.246-5.944-5.135-8.189c-6.916-3.993-18.095-4.013-24.967-0.045c-3.828,2.21-5.511,5.192-5.057,8.09
				C246.23,407.352,247.915,405.138,250.924,403.401z"/>
		</g>
		<path style="fill:#FFAD66;" d="M267.328,456.404c-0.048,0.009-0.097,0.014-0.145,0.014c-0.384,0.011-0.757-0.21-1.035-0.486
			c-0.847-0.83-1.103-2.119-1.917-2.986c-0.66-0.708-1.627-1.066-2.298-1.766c-0.498-0.523-0.799-1.203-1.291-1.732
			c-0.492-0.526-1.317-0.879-1.931-0.503c-0.432,0.262-0.756,0.85-1.251,0.757c-0.148-0.029-0.276-0.12-0.39-0.216
			c-0.782-0.665-1.112-1.735-1.18-2.761c-0.068-1.027,0.082-2.053,0.071-3.083c-0.009-0.495-0.054-1.001-0.239-1.459
			c-0.449-1.112-1.632-1.789-2.122-2.884c-0.267-0.597-0.338-1.325-0.842-1.74c-0.455-0.37-1.101-0.353-1.684-0.319
			c-0.156,0.011-0.321,0.023-0.449,0.114c-0.165,0.12-0.219,0.333-0.262,0.529c-0.808,3.89-0.011,8.116-1.61,11.756
			c-0.27,0.617-0.668,1.257-1.317,1.447c-0.259,0.077-0.552,0.028-0.785-0.1c-0.816-0.441-0.435-1.863-0.435-2.65v-32.76
			c0.719,0.603,1.544,1.177,2.471,1.712c5.21,3.009,12.459,4.115,19.142,3.313v30.986
			C267.832,452.482,268.329,456.219,267.328,456.404z"/>
	</g>
	<g>
		
			<ellipse transform="matrix(0.0054 -1 1 0.0054 -108.6451 739.6698)" style="fill:#F2F2F2;" cx="317.523" cy="424.453" rx="14.18" ry="24.562"/>
		
			<ellipse transform="matrix(0.0054 -1 1 0.0054 -107.0811 738.1141)" style="fill:#C4C4C4;" cx="317.523" cy="422.889" rx="12.086" ry="20.934"/>
		<path style="fill:#D9D9D9;" d="M337.75,383.443h-40.441v37.896c-0.111,3.081,1.873,6.189,5.958,8.548
			c7.923,4.574,20.729,4.598,28.602,0.052c4.083-2.357,6.032-5.48,5.863-8.579L337.75,383.443z"/>
		<g>
			
				<ellipse transform="matrix(0.0054 -1 1 0.0054 -68.3114 699.5539)" style="fill:#F2F2F2;" cx="317.523" cy="384.118" rx="12.086" ry="20.934"/>
			<path style="fill:#8482FF;" d="M321.908,395.951c0,0-0.003,0.003-0.006,0c-6.68,0.799-13.926-0.307-19.136-3.313
				c-0.927-0.535-1.752-1.109-2.471-1.712l3.555-1.974l17.299,4.426L321.908,395.951z"/>
			<path style="fill:#999999;" d="M334.015,387.818c-0.851,1.286-2.175,2.493-3.971,3.529c-6.873,3.968-18.049,3.95-24.967-0.044
				c-1.834-1.057-3.182-2.287-4.047-3.6c-2.402-3.638-1.08-7.897,3.971-10.814c6.873-3.968,18.049-3.95,24.967,0.044
				C335.078,379.886,336.432,384.177,334.015,387.818z"/>
			<path style="fill:#4D4BB7;" d="M334.015,387.818c-0.851,1.286-2.175,2.493-3.971,3.529c-6.873,3.968-18.049,3.95-24.967-0.044
				c-1.834-1.057-3.182-2.287-4.047-3.6c0.851-1.286,2.175-2.493,3.971-3.529c6.873-3.968,18.049-3.95,24.967,0.044
				C331.802,385.275,333.15,386.505,334.015,387.818z"/>
			<path style="fill:#D9D9D9;" d="M305,378.753c6.873-3.968,18.051-3.948,24.967,0.045c3.064,1.769,4.774,4.021,5.135,6.325
				c0.467-2.922-1.246-5.944-5.135-8.189c-6.916-3.993-18.095-4.013-24.967-0.045c-3.828,2.21-5.511,5.192-5.057,8.09
				C300.307,382.703,301.991,380.49,305,378.753z"/>
		</g>
		<path style="fill:#4D4BB7;" d="M321.405,431.755c-0.048,0.009-0.097,0.014-0.145,0.014c-0.384,0.011-0.757-0.21-1.035-0.486
			c-0.847-0.83-1.103-2.119-1.917-2.986c-0.66-0.708-1.627-1.066-2.298-1.766c-0.498-0.523-0.799-1.203-1.291-1.732
			c-0.492-0.526-1.317-0.879-1.931-0.503c-0.432,0.262-0.756,0.85-1.251,0.757c-0.148-0.028-0.276-0.12-0.39-0.216
			c-0.782-0.665-1.112-1.735-1.18-2.761c-0.068-1.027,0.082-2.053,0.071-3.083c-0.009-0.495-0.054-1.001-0.239-1.459
			c-0.449-1.112-1.632-1.789-2.121-2.884c-0.267-0.597-0.338-1.325-0.842-1.74c-0.455-0.37-1.1-0.353-1.684-0.319
			c-0.156,0.011-0.321,0.023-0.449,0.114c-0.165,0.12-0.219,0.333-0.262,0.529c-0.808,3.89-0.011,8.116-1.61,11.756
			c-0.27,0.617-0.668,1.257-1.317,1.448c-0.259,0.077-0.552,0.029-0.785-0.099c-0.816-0.441-0.435-1.863-0.435-2.65v-32.76
			c0.72,0.603,1.544,1.177,2.471,1.712c5.21,3.009,12.459,4.115,19.142,3.313v30.986
			C321.908,427.833,322.406,431.57,321.405,431.755z"/>
	</g>
	<g>
		<path style="fill:#F2F2F2;" d="M431.529,421.935c-9.562,5.521-25.114,5.493-34.736-0.063c-9.622-5.555-9.671-14.534-0.109-20.055
			c9.562-5.521,25.113-5.492,34.736,0.063C441.042,407.436,441.09,416.415,431.529,421.935z"/>
		<path style="fill:#C4C4C4;" d="M428.955,418.886c-8.15,4.705-21.404,4.681-29.605-0.054c-8.201-4.735-8.242-12.387-0.093-17.092
			c8.15-4.705,21.404-4.681,29.605,0.053S437.104,414.181,428.955,418.886z"/>
		<path style="fill:#D9D9D9;" d="M434.333,370.867h-40.441v37.896c-0.111,3.081,1.873,6.189,5.958,8.548
			c7.923,4.574,20.729,4.598,28.602,0.052c4.083-2.357,6.032-5.48,5.863-8.579L434.333,370.867z"/>
		<g>
			
				<ellipse transform="matrix(0.0054 -1 1 0.0054 40.3242 783.6282)" style="fill:#F2F2F2;" cx="414.106" cy="371.542" rx="12.086" ry="20.934"/>
			<path style="fill:#737373;" d="M418.491,383.375c0,0-0.003,0.003-0.006,0c-6.68,0.799-13.926-0.307-19.136-3.313
				c-0.927-0.535-1.752-1.109-2.471-1.712l3.555-1.974l17.299,4.426L418.491,383.375z"/>
			<path style="fill:#999999;" d="M430.599,375.242c-0.851,1.286-2.175,2.493-3.971,3.529c-6.873,3.968-18.049,3.95-24.967-0.044
				c-1.834-1.057-3.182-2.287-4.047-3.6c-2.402-3.638-1.08-7.897,3.971-10.814c6.873-3.968,18.049-3.95,24.967,0.044
				C431.661,367.31,433.015,371.601,430.599,375.242z"/>
			<path style="fill:#1F2125;" d="M430.599,375.242c-0.851,1.286-2.175,2.493-3.971,3.529c-6.873,3.968-18.049,3.95-24.967-0.044
				c-1.834-1.057-3.182-2.287-4.047-3.6c0.851-1.286,2.175-2.493,3.971-3.529c6.873-3.968,18.049-3.95,24.967,0.044
				C428.385,372.699,429.733,373.93,430.599,375.242z"/>
			<path style="fill:#D9D9D9;" d="M401.583,366.177c6.873-3.968,18.051-3.948,24.967,0.045c3.064,1.769,4.774,4.021,5.135,6.325
				c0.467-2.922-1.247-5.944-5.135-8.189c-6.916-3.993-18.095-4.013-24.967-0.045c-3.828,2.21-5.511,5.192-5.057,8.09
				C396.89,370.127,398.575,367.914,401.583,366.177z"/>
		</g>
		<path style="fill:#1F2125;" d="M417.988,419.179c-0.048,0.008-0.097,0.014-0.145,0.014c-0.384,0.011-0.757-0.21-1.035-0.486
			c-0.847-0.83-1.103-2.119-1.917-2.986c-0.66-0.708-1.627-1.066-2.298-1.766c-0.498-0.523-0.799-1.203-1.291-1.732
			c-0.492-0.526-1.317-0.879-1.931-0.503c-0.432,0.262-0.756,0.85-1.251,0.756c-0.148-0.028-0.276-0.119-0.39-0.216
			c-0.782-0.665-1.112-1.735-1.18-2.761c-0.068-1.027,0.082-2.053,0.071-3.083c-0.009-0.495-0.054-1.001-0.239-1.459
			c-0.449-1.112-1.632-1.789-2.121-2.884c-0.267-0.597-0.338-1.325-0.842-1.74c-0.455-0.37-1.1-0.353-1.683-0.319
			c-0.156,0.011-0.321,0.023-0.449,0.114c-0.165,0.119-0.219,0.333-0.262,0.529c-0.808,3.89-0.011,8.116-1.61,11.756
			c-0.27,0.617-0.668,1.257-1.317,1.448c-0.259,0.077-0.552,0.028-0.785-0.1c-0.816-0.441-0.435-1.863-0.435-2.65v-32.76
			c0.719,0.603,1.544,1.177,2.471,1.712c5.21,3.009,12.459,4.115,19.142,3.313v30.986
			C418.491,415.257,418.989,418.994,417.988,419.179z"/>
	</g>
	<g>
		<g>
			<path style="fill:#F2F2F2;" d="M91.866,399.406c-1.314,0.759-3.424,0.759-4.73,0L52.744,379.42
				c-1.289-0.749-1.282-1.971,0.033-2.73l34.617-19.986c1.297-0.749,3.424-0.759,4.713-0.01l34.392,19.986
				c1.306,0.759,1.282,1.991-0.015,2.74L91.866,399.406z"/>
		</g>
		<path style="fill:#FFAD66;" d="M91.675,396.344l31.403-18.131c0.594-0.343,0.894-0.798,0.893-1.253l-0.017-3.169
			c0.001,0.455-0.299,0.91-0.893,1.252l-31.403,18.131c-1.192,0.688-3.106,0.688-4.291,0l-31.199-18.131
			c-0.579-0.336-0.87-0.778-0.871-1.222l0.017,3.169c0.001,0.444,0.292,0.885,0.871,1.222l31.199,18.131
			C88.569,397.033,90.483,397.033,91.675,396.344z"/>
		<g>
			<path style="fill:#FFD166;" d="M91.658,393.175c-1.192,0.688-3.106,0.688-4.291,0l-31.199-18.131
				c-1.169-0.68-1.163-1.788,0.029-2.477l31.403-18.13c1.177-0.68,3.106-0.689,4.275-0.009l31.199,18.131
				c1.185,0.688,1.163,1.806-0.014,2.485L91.658,393.175z"/>
		</g>
		<g>
			<path style="fill:#FFFFFF;" d="M95.56,367.675c3.454-0.855,6.642-1.302,9.562-1.344l0.985,2.004
				c-2.778,0.124-5.656,0.575-8.634,1.355c-2.979,0.779-5.792,1.933-8.442,3.463c-2.649,1.529-4.654,3.157-6.013,4.882
				c-1.36,1.724-2.137,3.383-2.332,4.976l-3.502-0.551c0.092-1.697,0.878-3.544,2.358-5.538c1.48-1.994,3.657-3.82,6.527-5.478
				C88.942,369.786,92.105,368.53,95.56,367.675z"/>
		</g>
	</g>
	<g>
		<g>
			<g style="enable-background:new    ;">
				<g>
					<path d="M151.594,125.244l-7.272,4.226c0.025-0.014,0.048-0.032,0.07-0.054l7.272-4.226
						C151.642,125.212,151.619,125.229,151.594,125.244z"/>
				</g>
				<g>
					<path d="M134.7,109.053l7.272-4.226c0.077-0.045,0.174-0.06,0.285-0.037l-7.272,4.226
						C134.874,108.994,134.777,109.009,134.7,109.053z"/>
				</g>
				<g>
					<polygon points="145.942,127.864 153.214,123.637 151.664,125.19 144.392,129.416 					"/>
				</g>
				<g>
					<polygon points="134.985,109.016 142.257,104.79 144.759,105.302 137.486,109.529 					"/>
				</g>
				<g>
					<path d="M162.098,133.618l-7.272,4.226c0.126-0.073,0.204-0.23,0.204-0.455l7.272-4.226
						C162.302,133.388,162.224,133.544,162.098,133.618z"/>
				</g>
				<g>
					<polygon points="155.039,134.377 162.311,130.151 162.302,133.163 155.03,137.389 					"/>
				</g>
				<g>
					<path d="M136.072,97.624l7.272-4.226c0.131-0.076,0.311-0.06,0.5,0.049c0.073,0.042,0.148,0.099,0.221,0.169l-7.272,4.226
						c-0.074-0.07-0.148-0.127-0.221-0.169C136.384,97.564,136.203,97.548,136.072,97.624z"/>
				</g>
				<g>
					<polygon points="136.794,97.842 144.066,93.616 146.557,95.986 139.285,100.212 					"/>
				</g>
				<g>
					<path d="M144.855,103.335l7.272-4.226c-1.864,1.083-3.02,3.385-3.029,6.658c-0.019,6.597,4.62,14.631,10.361,17.945
						l-7.272,4.226c-5.741-3.314-10.379-11.349-10.361-17.945C141.835,106.72,142.991,104.418,144.855,103.335z"/>
				</g>
				<g>
					<path d="M166.85,124.434l-7.272,4.226c-1.889,1.098-4.505,0.944-7.391-0.722l7.272-4.226
						C162.345,125.378,164.96,125.532,166.85,124.434z"/>
				</g>
				<g>
					<path d="M171.795,133.985l-7.272,4.226c0.24-0.139,0.283-0.558,0.075-1.011l7.272-4.226
						C172.078,133.426,172.035,133.845,171.795,133.985z"/>
				</g>
				<g>
					<polygon points="163.057,133.867 170.33,129.641 171.871,132.973 164.599,137.2 					"/>
				</g>
				<g>
					<path d="M165.156,131.786l7.272-4.226c-0.587,0.853-1.291,1.545-2.099,2.081l-7.272,4.226
						C163.865,133.332,164.569,132.639,165.156,131.786z"/>
				</g>
				<g>
					<polygon points="144.493,93.6 151.765,89.374 153.302,92.704 146.029,96.93 					"/>
				</g>
				<path style="fill:#666666;" d="M151.199,88.711c-0.144-0.083-0.29-0.116-0.417-0.083l-3.509,0.899
					c-0.032,0.008-0.061,0.021-0.088,0.036l-7.272,4.226c0.027-0.016,0.056-0.028,0.088-0.036l3.509-0.899
					c0.127-0.033,0.273-0.001,0.417,0.083c0.216,0.125,0.429,0.363,0.566,0.663l7.272-4.226
					C151.628,89.074,151.415,88.836,151.199,88.711z"/>
				<g>
					<path d="M175.636,130.143l-7.272,4.226c0.075-0.044,0.135-0.118,0.169-0.221l7.272-4.226
						C175.771,130.025,175.712,130.099,175.636,130.143z"/>
				</g>
				<g>
					<path d="M146.029,96.93l7.272-4.226c1.06,0.049,2.186,0.271,3.368,0.688l-7.272,4.226
						C148.216,97.201,147.09,96.979,146.029,96.93z"/>
				</g>
				<g>
					<polygon points="169.888,130.191 177.16,125.965 175.806,129.921 168.533,134.148 					"/>
				</g>
				<path style="fill:#666666;" d="M176.706,124.679l-2.496-2.373l-7.272,4.226l2.496,2.373c0.371,0.355,0.572,0.926,0.454,1.286
					l7.272-4.226C177.279,125.605,177.078,125.034,176.706,124.679z"/>
				<g>
					<path d="M166.95,122.467l7.272-4.226c0.069,0.706,0.104,1.409,0.103,2.09c-0.002,0.692-0.042,1.352-0.114,1.976l-7.272,4.226
						c0.072-0.624,0.112-1.284,0.114-1.976C167.054,123.876,167.019,123.173,166.95,122.467z"/>
				</g>
				<g>
					<path d="M155.133,100.93l7.272-4.226c1.18,0.947,2.304,2.023,3.366,3.2l-7.272,4.226
						C157.437,102.953,156.314,101.877,155.133,100.93z"/>
				</g>
				<g>
					<polygon points="155.142,97.913 162.414,93.686 162.406,96.704 155.133,100.93 					"/>
				</g>
				<path style="fill:#666666;" d="M161.711,92.468l-4.324-2.497c-0.197-0.114-0.374-0.124-0.502-0.05l-7.272,4.226
					c0.128-0.074,0.306-0.064,0.503,0.05l4.324,2.497c0.39,0.226,0.705,0.77,0.704,1.219l7.272-4.226
					C162.416,93.238,162.101,92.693,161.711,92.468z"/>
				<g>
					<path d="M163.123,110.682l7.272-4.226c0.802,1.459,1.5,2.967,2.08,4.494l-7.272,4.226
						C164.623,113.649,163.925,112.142,163.123,110.682z"/>
				</g>
				<g>
					<path d="M177.008,118.716l-7.272,4.226c0.181-0.105,0.256-0.374,0.174-0.721l7.272-4.226
						C177.264,118.341,177.189,118.611,177.008,118.716z"/>
				</g>
				<g>
					<polygon points="168.583,116.715 175.855,112.489 177.183,117.995 169.911,122.221 					"/>
				</g>
				<path style="fill:#666666;" d="M175.191,111.545c-0.073-0.042-0.147-0.072-0.219-0.086l-2.496-0.51l-7.272,4.226l2.497,0.51
					c0.073,0.014,0.147,0.044,0.219,0.085c0.295,0.17,0.571,0.547,0.664,0.944l7.272-4.226
					C175.762,112.092,175.486,111.715,175.191,111.545z"/>
				<g>
					<polygon points="164.678,109.137 171.95,104.911 170.395,106.456 163.123,110.682 					"/>
				</g>
				<g>
					<path style="fill:#333333;" d="M169.434,128.905c0.371,0.355,0.572,0.926,0.454,1.285l-1.355,3.957
						c-0.096,0.285-0.374,0.345-0.67,0.174c-0.072-0.041-0.145-0.097-0.216-0.166l-2.491-2.37c-0.587,0.853-1.291,1.546-2.099,2.081
						l1.541,3.332c0.23,0.501,0.153,0.96-0.158,1.046l-3.514,0.896c-0.124,0.034-0.268,0.001-0.412-0.082
						c-0.217-0.125-0.433-0.366-0.571-0.664l-1.532-3.332c-1.065-0.046-2.191-0.269-3.373-0.685l-0.009,3.012
						c-0.001,0.454-0.317,0.629-0.708,0.404l-4.324-2.497c-0.391-0.225-0.705-0.764-0.704-1.218l0.008-3.012
						c-1.18-0.947-2.304-2.023-3.361-3.202l-1.55,1.553c-0.14,0.138-0.354,0.131-0.571,0.005c-0.143-0.083-0.288-0.217-0.413-0.395
						l-3.493-4.941c-0.314-0.447-0.388-0.993-0.157-1.228l1.555-1.545c-0.802-1.465-1.5-2.967-2.075-4.491l-2.497-0.51
						c-0.073-0.015-0.147-0.044-0.219-0.086c-0.298-0.172-0.575-0.553-0.669-0.947l-1.328-5.505
						c-0.117-0.495,0.087-0.832,0.459-0.758l2.501,0.513c-0.064-0.703-0.104-1.409-0.103-2.101c0.002-0.681,0.046-1.338,0.114-1.965
						l-2.496-2.373c-0.371-0.355-0.572-0.926-0.453-1.285l1.354-3.957c0.095-0.288,0.372-0.346,0.67-0.174
						c0.073,0.042,0.148,0.099,0.221,0.169l2.491,2.37c0.582-0.855,1.286-1.554,2.094-2.084l-1.541-3.332
						c-0.229-0.501-0.153-0.96,0.163-1.043l3.509-0.899c0.127-0.033,0.273-0.001,0.417,0.083c0.216,0.125,0.429,0.363,0.566,0.663
						l1.536,3.33c1.061,0.049,2.186,0.271,3.368,0.688l0.009-3.017c0.001-0.449,0.318-0.629,0.708-0.403l4.324,2.497
						c0.39,0.226,0.705,0.77,0.703,1.219l-0.009,3.017c1.18,0.947,2.304,2.023,3.366,3.2l1.546-1.55
						c0.139-0.141,0.354-0.132,0.57-0.007c0.145,0.083,0.29,0.219,0.414,0.397l3.497,4.944c0.31,0.444,0.384,0.991,0.152,1.225
						l-1.555,1.545c0.802,1.46,1.5,2.967,2.08,4.494l2.497,0.51c0.073,0.014,0.146,0.044,0.219,0.085
						c0.295,0.17,0.571,0.547,0.664,0.944l1.328,5.505c0.116,0.495-0.087,0.832-0.459,0.758l-2.501-0.513
						c0.069,0.706,0.105,1.409,0.103,2.09c-0.002,0.692-0.042,1.352-0.114,1.976L169.434,128.905z M152.187,127.938
						c5.736,3.312,10.405,0.651,10.424-5.946c0.019-6.591-4.62-14.62-10.356-17.932c-5.741-3.314-10.41-0.659-10.428,5.932
						C141.807,116.589,146.446,124.623,152.187,127.938L152.187,127.938z"/>
				</g>
				<path style="fill:#666666;" d="M171.798,103.686l-3.497-4.944c-0.124-0.178-0.269-0.313-0.414-0.397
					c-0.182-0.105-0.362-0.128-0.498-0.049l-7.272,4.226c0.135-0.079,0.316-0.056,0.498,0.049c0.145,0.083,0.29,0.219,0.414,0.397
					l3.497,4.944c0.31,0.444,0.384,0.991,0.152,1.225l7.272-4.226C172.182,104.677,172.108,104.13,171.798,103.686z"/>
			</g>
		</g>
		<g>
			<g style="enable-background:new    ;">
				<g>
					<path style="fill:#4D4BB7;" d="M138.812,74.086l8.658-5.032c0.023-0.013,0.048-0.024,0.075-0.031l-8.658,5.032
						C138.859,74.063,138.835,74.073,138.812,74.086z"/>
				</g>
				<g>
					<path style="fill:#4D4BB7;" d="M158.456,84.861l-8.658,5.032c0.064-0.037,0.114-0.1,0.144-0.188l8.658-5.032
						C158.57,84.761,158.52,84.824,158.456,84.861z"/>
				</g>
				<g>
					<polygon style="fill:#4D4BB7;" points="138.886,74.056 147.545,69.024 149.359,68.556 140.7,73.588 					"/>
				</g>
				<g>
					<polygon style="fill:#4D4BB7;" points="150.638,87.656 159.296,82.625 158.6,84.673 149.942,89.704 					"/>
				</g>
				<g>
					<path style="fill:#4D4BB7;" d="M137.126,62.805l8.658-5.032c0.11-0.064,0.264-0.053,0.434,0.045l-8.658,5.032
						C137.39,62.752,137.236,62.741,137.126,62.805z"/>
				</g>
				<g>
					<polygon style="fill:#4D4BB7;" points="137.56,62.85 146.219,57.819 148.454,59.109 139.796,64.141 					"/>
				</g>
				<g>
					<path style="fill:#4D4BB7;" d="M167.506,88.774l-8.658,5.032c0.153-0.089,0.217-0.318,0.147-0.615l8.658-5.032
						C167.723,88.456,167.658,88.685,167.506,88.774z"/>
				</g>
				<g>
					<polygon style="fill:#4D4BB7;" points="158.312,90.353 166.971,85.321 167.653,88.159 158.995,93.19 					"/>
				</g>
				<g>
					<path style="fill:#4D4BB7;" d="M167.117,79.87l-8.658,5.032c-1.61,0.936-3.838,0.804-6.296-0.615l8.658-5.031
						C163.279,80.674,165.507,80.806,167.117,79.87z"/>
				</g>
				<g>
					<path style="fill:#4D4BB7;" d="M145.918,63.315l8.658-5.032c-1.59,0.924-2.576,2.889-2.584,5.681
						c-0.016,5.62,3.938,12.468,8.828,15.292l-8.658,5.031c-4.891-2.824-8.845-9.672-8.829-15.292
						C143.342,66.203,144.328,64.239,145.918,63.315z"/>
				</g>
				<g>
					<path style="fill:#9996FF;" d="M141.036,55.562l8.658-5.032c0.116-0.068,0.272-0.049,0.43,0.042
						c0.122,0.07,0.245,0.184,0.351,0.335l-8.658,5.032c-0.106-0.151-0.229-0.264-0.351-0.335
						C141.308,55.513,141.152,55.494,141.036,55.562z"/>
				</g>
				<g>
					<path style="fill:#4D4BB7;" d="M172,87.622l-8.658,5.032c0.021-0.012,0.042-0.028,0.06-0.046l8.658-5.032
						C172.041,87.594,172.021,87.609,172,87.622z"/>
				</g>
				<g>
					<polygon style="fill:#4D4BB7;" points="141.817,55.939 150.475,50.907 152.28,53.465 143.622,58.496 					"/>
				</g>
				<g>
					<path style="fill:#4D4BB7;" d="M143.622,58.496l8.658-5.031c0.742-0.359,1.562-0.575,2.443-0.634l-8.658,5.032
						C145.184,57.921,144.364,58.138,143.622,58.496z"/>
				</g>
				<g>
					<polygon style="fill:#4D4BB7;" points="165.579,90.428 174.238,85.396 172.06,87.575 163.401,92.607 					"/>
				</g>
				<path style="fill:#9996FF;" d="M174.106,84.359l-1.805-2.558l-8.658,5.032l1.806,2.558c0.268,0.381,0.328,0.847,0.132,1.037
					l8.658-5.032C174.435,85.207,174.374,84.74,174.106,84.359z"/>
				<g>
					<path style="fill:#4D4BB7;" d="M164.582,84.074l8.658-5.032c-0.199,1.046-0.516,1.965-0.939,2.759l-8.658,5.032
						C164.065,86.039,164.382,85.12,164.582,84.074z"/>
				</g>
				<g>
					<polygon style="fill:#4D4BB7;" points="150.038,55.972 158.696,50.94 159.378,53.784 150.72,58.816 					"/>
				</g>
				<path style="fill:#9996FF;" d="M158.13,50.132c-0.063-0.036-0.126-0.061-0.189-0.073l-3.511-0.718
					c-0.093-0.017-0.174-0.005-0.239,0.033l-8.658,5.031c0.065-0.038,0.146-0.051,0.239-0.033l3.511,0.718
					c0.063,0.012,0.126,0.037,0.189,0.073c0.252,0.145,0.486,0.467,0.566,0.808l8.658-5.031
					C158.616,50.599,158.381,50.277,158.13,50.132z"/>
				<g>
					<path style="fill:#4D4BB7;" d="M175.908,80.377l-8.658,5.032c0.108-0.063,0.174-0.195,0.174-0.383l8.658-5.032
						C176.082,80.181,176.015,80.314,175.908,80.377z"/>
				</g>
				<g>
					<path style="fill:#4D4BB7;" d="M150.72,58.816l8.658-5.032c0.499,0.223,0.998,0.466,1.513,0.764
						c0.51,0.294,1.008,0.627,1.507,0.979l-8.658,5.032c-0.498-0.352-0.997-0.685-1.507-0.979
						C151.717,59.282,151.218,59.039,150.72,58.816z"/>
				</g>
				<g>
					<path style="fill:#4D4BB7;" d="M163.677,74.627l8.658-5.032c0.417,1.279,0.728,2.561,0.921,3.833l-8.658,5.032
						C164.405,77.188,164.094,75.907,163.677,74.627z"/>
				</g>
				<g>
					<polygon style="fill:#4D4BB7;" points="167.436,80.789 176.094,75.757 176.082,79.993 167.424,85.025 					"/>
				</g>
				<path style="fill:#9996FF;" d="M175.491,74.719l-2.235-1.29l-8.658,5.032l2.235,1.29c0.336,0.194,0.604,0.652,0.603,1.038
					l8.658-5.032C176.095,75.371,175.827,74.914,175.491,74.719z"/>
				<g>
					<path style="fill:#4D4BB7;" d="M158.384,64.975l8.658-5.032c0.878,1.074,1.694,2.235,2.431,3.448l-8.658,5.032
						C160.079,67.211,159.262,66.05,158.384,64.975z"/>
				</g>
				<g>
					<polygon style="fill:#4D4BB7;" points="159.08,62.933 167.739,57.902 167.043,59.944 158.384,64.975 					"/>
				</g>
				<path style="fill:#9996FF;" d="M167.355,56.803l-3.504-3.332c-0.063-0.061-0.126-0.109-0.189-0.145
					c-0.159-0.092-0.311-0.105-0.423-0.041l-8.658,5.031c0.111-0.065,0.264-0.051,0.423,0.041c0.063,0.036,0.127,0.084,0.189,0.145
					l3.503,3.332c0.313,0.303,0.486,0.79,0.384,1.099l8.658-5.032C167.841,57.593,167.668,57.106,167.355,56.803z"/>
				<g>
					<polygon style="fill:#4D4BB7;" points="160.816,68.423 169.474,63.391 171.288,62.923 162.63,67.955 					"/>
				</g>
				<g>
					<path style="fill:#6865F7;" d="M166.833,79.751c0.336,0.194,0.604,0.652,0.603,1.038l-0.012,4.236
						c-0.001,0.38-0.271,0.534-0.607,0.339l-2.235-1.291c-0.199,1.046-0.516,1.965-0.939,2.759l1.805,2.558
						c0.268,0.381,0.329,0.847,0.132,1.037l-2.178,2.179c-0.119,0.118-0.303,0.112-0.49,0.004c-0.122-0.07-0.245-0.184-0.351-0.335
						l-1.805-2.557c-0.742,0.358-1.562,0.575-2.443,0.634l0.682,2.838c0.1,0.425-0.075,0.711-0.389,0.646l-3.511-0.712
						c-0.061-0.013-0.122-0.037-0.183-0.072c-0.254-0.147-0.492-0.471-0.572-0.808l-0.682-2.844
						c-0.499-0.223-0.997-0.473-1.507-0.767c-0.516-0.298-1.014-0.624-1.512-0.976l-0.696,2.049
						c-0.082,0.244-0.321,0.293-0.575,0.146c-0.061-0.035-0.122-0.081-0.183-0.138l-3.504-3.338
						c-0.313-0.297-0.486-0.783-0.384-1.092l0.696-2.042c-0.878-1.074-1.694-2.235-2.431-3.448l-1.814,0.468
						c-0.106,0.028-0.23-0.001-0.352-0.071c-0.186-0.107-0.37-0.313-0.488-0.569l-2.159-4.683c-0.195-0.416-0.132-0.812,0.137-0.882
						l1.814-0.468c-0.417-1.279-0.728-2.561-0.92-3.833l-2.235-1.29c-0.336-0.194-0.604-0.658-0.603-1.038l0.012-4.236
						c0.001-0.386,0.271-0.533,0.607-0.339l2.235,1.291c0.199-1.045,0.516-1.965,0.939-2.759l-1.805-2.558
						c-0.268-0.381-0.328-0.847-0.132-1.043l2.178-2.173c0.119-0.118,0.303-0.112,0.49-0.004c0.122,0.07,0.245,0.184,0.351,0.335
						l1.805,2.557c0.742-0.358,1.562-0.575,2.443-0.633l-0.682-2.838c-0.1-0.425,0.075-0.711,0.389-0.652l3.511,0.718
						c0.063,0.012,0.126,0.037,0.189,0.073c0.252,0.145,0.486,0.467,0.566,0.808l0.682,2.844c0.499,0.223,0.997,0.466,1.513,0.764
						c0.51,0.294,1.008,0.627,1.507,0.979l0.696-2.049c0.081-0.247,0.317-0.298,0.569-0.153c0.063,0.036,0.127,0.084,0.189,0.145
						l3.503,3.332c0.313,0.303,0.486,0.79,0.384,1.099l-0.696,2.042c0.878,1.074,1.694,2.235,2.431,3.448l1.814-0.468
						c0.107-0.028,0.23,0.001,0.352,0.071c0.186,0.108,0.37,0.313,0.488,0.569l2.159,4.677c0.195,0.422,0.132,0.818-0.137,0.888
						l-1.814,0.468c0.417,1.279,0.728,2.561,0.921,3.833L166.833,79.751z M152.163,84.287c4.885,2.821,8.865,0.553,8.881-5.067
						c0.016-5.62-3.938-12.468-8.823-15.289c-4.891-2.824-8.87-0.556-8.886,5.064C143.318,74.615,147.272,81.463,152.163,84.287
						L152.163,84.287z"/>
				</g>
				<path style="fill:#9996FF;" d="M174.286,68.24l-2.158-4.677c-0.118-0.255-0.302-0.461-0.488-0.569
					c-0.122-0.07-0.245-0.099-0.352-0.071l-8.658,5.032c0.107-0.028,0.23,0.001,0.352,0.071c0.186,0.108,0.37,0.313,0.488,0.569
					l2.159,4.677c0.176,0.38,0.142,0.739-0.063,0.857l8.658-5.032C174.428,68.978,174.462,68.62,174.286,68.24z"/>
			</g>
		</g>
	</g>
</g>
</svg>
